<svg width="270" height="228" viewBox="0 0 270 228" fill="none" xmlns="http://www.w3.org/2000/svg">
<path d="M63.1457 18.9517V87.63H115.298V18.9517H63.1457ZM111.681 82.8415H66.7895V23.747H111.681V82.8415Z" fill="#2563EB"/>
<path opacity="0.5" d="M63.1457 18.9517V87.63H115.298V18.9517H63.1457ZM111.681 82.8415H66.7895V23.747H111.681V82.8415Z" fill="#F9C784" fill-opacity="0.9"/>
<path d="M224.648 56.5215V107.238H263.173V56.5215H224.648ZM260.484 103.696H227.357V60.0909H260.504L260.484 103.696Z" fill="#2563EB"/>
<path opacity="0.5" d="M224.648 56.5215V107.238H263.173V56.5215H224.648ZM260.484 103.696H227.357V60.0909H260.504L260.484 103.696Z" fill="#F9C784" fill-opacity="0.9"/>
<path d="M248.638 147.734H245.766H116.083H113.212V153.477H116.083V211.86H245.766V153.477H248.638V147.734Z" fill="#2563EB"/>
<path opacity="0.5" d="M248.638 147.734H245.766H116.083H113.212V153.477H116.083V211.86H245.766V153.477H248.638V147.734Z" fill="#F9C784" fill-opacity="0.9"/>
<path d="M119.551 178.246H154.92V159.343H119.551V178.246ZM120.269 160.061H154.209V177.528H120.276L120.269 160.061Z" fill="#F9C784" fill-opacity="0.9"/>
<path d="M163.481 178.246H198.849V159.343H163.481V178.246ZM164.199 160.061H198.132V177.528H164.199V160.061Z" fill="#F9C784" fill-opacity="0.9"/>
<path d="M207.404 159.343V178.246H242.772V159.343H207.404ZM242.054 177.528H208.122V160.061H242.054V177.528Z" fill="#F9C784" fill-opacity="0.9"/>
<path d="M119.551 203.604H154.92V184.714H119.551V203.604ZM120.269 185.392H154.209V202.859H120.276L120.269 185.392Z" fill="#F9C784" fill-opacity="0.9"/>
<path d="M163.481 203.604H198.849V184.714H163.481V203.604ZM164.199 185.392H198.132V202.859H164.199V185.392Z" fill="#F9C784" fill-opacity="0.9"/>
<path d="M207.404 203.604H242.772V184.714H207.404V203.604ZM208.122 185.392H242.054V202.859H208.122V185.392Z" fill="#F9C784" fill-opacity="0.9"/>
<path d="M137.615 171.189C140.787 171.189 143.358 170.224 143.358 169.035C143.358 167.845 140.787 166.881 137.615 166.881C134.443 166.881 131.871 167.845 131.871 169.035C131.871 170.224 134.443 171.189 137.615 171.189Z" fill="#F9C784" fill-opacity="0.9"/>
<path d="M181.328 171.189C184.5 171.189 187.071 170.224 187.071 169.035C187.071 167.845 184.5 166.881 181.328 166.881C178.156 166.881 175.584 167.845 175.584 169.035C175.584 170.224 178.156 171.189 181.328 171.189Z" fill="#F9C784" fill-opacity="0.9"/>
<path d="M226.314 171.189C229.486 171.189 232.058 170.224 232.058 169.035C232.058 167.845 229.486 166.881 226.314 166.881C223.142 166.881 220.571 167.845 220.571 169.035C220.571 170.224 223.142 171.189 226.314 171.189Z" fill="#F9C784" fill-opacity="0.9"/>
<path d="M137.615 192.239C134.445 192.239 131.871 193.208 131.871 194.393C131.871 195.578 134.445 196.547 137.615 196.547C140.785 196.547 143.358 195.585 143.358 194.393C143.358 193.201 140.785 192.239 137.615 192.239Z" fill="#F9C784" fill-opacity="0.9"/>
<path d="M181.301 192.239C178.131 192.239 175.557 193.208 175.557 194.393C175.557 195.578 178.131 196.547 181.301 196.547C184.47 196.547 187.044 195.585 187.044 194.393C187.044 193.201 184.504 192.239 181.301 192.239Z" fill="#F9C784" fill-opacity="0.9"/>
<path d="M226.314 192.239C223.138 192.239 220.571 193.208 220.571 194.393C220.571 195.578 223.138 196.547 226.314 196.547C229.491 196.547 232.058 195.585 232.058 194.393C232.058 193.201 229.484 192.239 226.314 192.239Z" fill="#F9C784" fill-opacity="0.9"/>
<path d="M97.3154 142.722C94.6943 146.602 91.0504 151.648 89.1065 155.692C89.8516 153.023 90.5695 150.504 91.2333 148.242C92.2289 146.291 94.8907 141.347 97.9656 138.082C101.874 133.903 103.547 131.214 101.44 130.977C99.984 130.821 95.717 136.504 93.0417 142.146C93.6241 140.216 94.0847 138.759 94.3963 137.879C94.5249 137.493 94.6469 137.059 94.7688 136.606C97.5177 132.712 100.015 128.646 102.246 124.434C106.195 117.059 107.468 110.096 104.833 113.09C102.409 115.846 98.1891 129.548 94.8433 136.003C95.121 134.892 95.3919 133.659 95.6289 132.454C96.103 131.275 96.7262 130.083 97.0784 129.006C97.627 127.34 98.1079 125.62 98.4939 123.947C99.1369 121.286 99.4597 118.557 99.4557 115.819C99.5236 112.604 98.6477 109.439 96.9361 106.716C96.4823 106.039 93.7122 101.887 92.8723 104.007C92.7607 104.357 92.7398 104.73 92.8114 105.091C93.211 108.619 94.4911 111.864 95.2835 115.298C96.4688 120.438 95.6831 129.074 95.2835 132.745C95.1277 133.321 94.9381 134.045 94.7146 134.878C95.27 128.485 92.493 120.906 89.9261 119.578C86.7495 117.939 89.8651 124.373 92.3169 129.988C93.481 132.448 94.0273 135.154 93.9086 137.872C93.4074 139.721 92.8317 141.794 92.2357 143.893C92.1205 144.185 92.0054 144.469 91.9038 144.753C92.1727 143.384 92.284 141.989 92.2357 140.595C91.9986 136.924 87.84 129.568 85.0834 130.611C82.3268 131.654 86.9934 135.522 89.4926 140.033C90.7881 142.525 91.2802 145.357 90.9014 148.14C90.9014 148.303 90.8472 148.465 90.8269 148.628C90.5424 149.583 90.258 150.511 89.9803 151.384C89.303 153.416 88.7273 155.367 88.1515 157.25C88.858 154.52 89.1704 151.703 89.0794 148.885C88.7273 143.5 85.5778 138.421 82.9499 137.73C80.322 137.039 85.3137 145.81 87.0137 150.741C87.9116 153.628 88.0539 156.697 87.4268 159.654C86.6276 162.323 85.8623 164.951 85.0834 167.741C85.3035 164.095 85.2265 160.436 84.8531 156.803C84.3451 150.815 80.7893 146.989 78.3307 147.151C75.8721 147.314 78.4391 150.707 81.9813 157.988C83.842 161.81 84.6708 166.053 84.3858 170.294C84.0674 171.473 83.7423 172.679 83.4104 173.938C83.0379 175.374 82.7331 176.932 82.469 178.537C82.11 177.108 81.5817 175.022 80.9654 172.719C80.2476 170.171 79.7268 167.572 79.4076 164.944C79.0757 161.896 78.2765 158.083 75.2828 156.498C75.0797 156.355 74.8477 156.258 74.6031 156.215C74.3586 156.172 74.1075 156.183 73.8678 156.248C73.628 156.312 73.4053 156.429 73.2156 156.589C73.0259 156.749 72.8738 156.95 72.7701 157.175C72.489 157.829 72.4249 158.555 72.5872 159.248C72.9839 161.324 73.6678 163.334 74.6191 165.221C74.0296 166.349 73.7602 167.616 73.8402 168.886C73.8402 169.367 73.8876 169.841 73.9147 170.308C73.6505 169.827 73.3999 169.38 73.1629 168.953C72.7364 168.235 72.207 167.582 71.5916 167.016C71.7483 165.894 71.8252 164.763 71.8218 163.63C71.8218 162.14 70.0812 158.36 68.5098 161.164C67.8867 162.282 68.0086 164.49 67.9477 165.953C67.5142 166.353 67.3855 167.179 67.7445 168.486C67.3878 171.879 67.5661 175.308 68.2728 178.646L67.7377 177.697C66.9681 173.78 66.5152 169.807 66.3831 165.817C66.1867 159.234 67.2433 153.822 65.4417 151.797C63.6401 149.772 62.6512 156.911 63.4098 164.666C63.7733 168.222 64.7207 171.693 66.2138 174.941C64.4528 171.778 62.7121 168.554 61.0663 165.459C60.389 163.792 58.7093 159.309 59.1225 154.757C59.644 149.014 60.0233 144.32 57.8424 141.089C55.6615 137.859 55.2077 139.951 56.2778 146.691C57.0093 151.31 57.795 157.487 59.136 161.774C57.8559 159.315 56.6571 156.979 55.587 154.859C54.9842 152.752 53.555 147.327 53.555 142.816C53.555 137.093 52.9387 134.011 51.2455 135.251C50.067 136.131 50.8255 143.196 52.7287 149.149C51.8347 147.341 51.1642 145.952 50.7781 145.133C50.6088 144.76 50.4056 144.361 50.1821 143.941C49.5738 139.226 48.669 134.555 47.4729 129.954C45.3191 121.827 41.4991 115.907 41.6142 119.89C41.7294 123.561 47.9944 136.457 49.9518 143.46C49.3964 142.457 48.753 141.374 48.1028 140.324C47.649 139.145 47.29 137.852 46.8091 136.815C46.0777 135.231 45.2784 133.666 44.398 132.156C43.0441 129.769 41.4141 127.551 39.5417 125.545C37.395 123.149 34.5928 121.435 31.4818 120.614C30.6826 120.425 25.8331 119.26 26.6595 121.427C26.8125 121.759 27.0452 122.047 27.3368 122.267C30.046 124.57 33.1886 126.067 36.1078 128.038C40.4832 130.984 45.8 137.831 47.9944 140.805C48.2789 141.326 48.6311 141.99 49.0375 142.749C45.0753 137.696 37.8823 134.045 35.0986 134.831C31.6579 135.806 38.3293 138.38 43.9509 140.812C46.4812 141.814 48.7275 143.421 50.4937 145.492C51.3877 147.178 52.3833 149.088 53.379 151.032L53.7244 151.885C52.986 150.701 52.1133 149.605 51.1235 148.621C48.4143 146.095 40.3883 143.561 39.0811 146.203C37.774 148.844 43.8222 148.492 48.7394 150.077C51.3858 150.996 53.6845 152.708 55.3228 154.981L55.6005 155.394C56.0475 156.288 56.4742 157.162 56.867 157.988C57.7949 159.925 58.6687 161.754 59.5356 163.521C58.1916 161.032 56.4943 158.751 54.4965 156.748C50.5749 153.05 44.7976 151.486 42.4135 152.773C40.0294 154.06 49.6538 157.067 54.2391 159.546C56.8658 161.033 59.0672 163.169 60.6328 165.75C61.8655 168.249 63.105 170.687 64.4393 173.261C62.1132 170.445 59.5603 167.824 56.8061 165.425C52.3495 161.361 47.1342 161.029 45.4545 162.81C43.7748 164.592 47.9538 165.343 55.4989 168.229C59.4689 169.753 62.9712 172.288 65.6584 175.584C66.2273 176.661 66.8166 177.765 67.4329 178.91C68.1102 180.217 68.9704 181.572 69.878 182.919C68.6453 182.12 66.8369 180.955 64.8118 179.689C62.5495 178.316 60.3961 176.772 58.3707 175.069C56.0407 173.038 52.8574 170.83 49.5658 171.683C49.321 171.719 49.0872 171.809 48.8808 171.946C48.6745 172.083 48.5006 172.263 48.3715 172.474C48.2423 172.685 48.161 172.922 48.1333 173.168C48.1056 173.414 48.1322 173.663 48.2112 173.898C48.4525 174.565 48.9011 175.137 49.4912 175.53C52.5797 177.928 56.7316 179.079 60.3281 180.495C63.6253 181.787 67.0032 182.864 70.4402 183.719C71.2935 184.944 72.1876 186.157 73.0748 187.308L71.4629 187.356C69.5529 187.41 60.9376 183.509 56.5623 182.249C52.1869 180.989 48.096 183.373 52.6813 185.838C57.2667 188.304 69.7358 187.755 69.7358 187.755L73.339 187.647C74.1788 188.731 75.0119 189.76 75.7908 190.695H58.7093V195.436H62.0958L64.805 212.341H87.5217L90.2309 195.483H93.6174V190.742H82.32C82.2279 188.695 82.2845 186.644 82.4893 184.606C83.2407 183.836 84.0768 183.155 84.9818 182.574C89.9532 179.14 98.3856 178.856 100.621 172.245C101.162 170.647 100.553 168.608 98.6429 168.696C97.2883 168.757 95.8186 169.956 94.9652 170.945C92.1205 174.23 89.9803 177.636 86.2822 180.122C86.1197 180.237 83.783 182.093 82.6316 183.244C82.7535 182.168 82.916 181.016 83.126 179.783C84.0179 178.196 85.0396 176.685 86.1806 175.266C89.2014 171.507 93.807 169.306 97.0784 165.723C98.0808 164.625 99.4015 160.684 96.3401 161.659C94.9855 162.092 93.3735 164.151 92.3102 165.1C89.303 167.809 86.2145 170.694 84.2503 174.257C84.3384 173.904 84.4196 173.579 84.5077 173.2C86.6149 169.81 88.9932 166.596 91.6193 163.589C95.9676 158.638 100.424 155.407 100.499 152.698C100.573 149.989 94.9652 154.527 90.2038 160.731C88.0439 163.577 86.3687 166.76 85.2459 170.152C86.1196 166.637 87.0475 163.095 87.9551 159.695C88.5782 158.001 90.4273 153.599 93.8409 150.544C98.135 146.704 101.616 143.534 102.233 139.708C102.849 135.881 101.095 137.066 97.3154 142.722ZM73.2577 186.286C72.5804 185.412 71.9437 184.457 71.2258 183.414C70.7939 181.645 70.5084 179.844 70.3724 178.029C70.2797 176.475 70.35 174.916 70.5824 173.376C71.7383 174.808 72.9658 176.18 74.2601 177.487C74.2322 178.842 74.0665 180.19 73.7657 181.511C73.7183 181.707 73.2848 184.653 73.2238 186.286H73.2577ZM76.9422 190.742C76.0685 189.814 75.1135 188.71 74.0772 187.356C74.1071 186.283 74.2571 185.218 74.5243 184.179C74.9307 182.535 75.5261 180.945 76.2988 179.438C77.8634 180.969 79.0283 182.005 79.0283 182.005L81.7375 184.382C81.5208 186.746 81.3989 188.961 81.3244 190.762L76.9422 190.742ZM81.8256 183.969L80.6132 182.899C79.9359 182.289 78.71 179.932 77.3825 177.223C77.9521 176.079 78.4564 174.903 78.8929 173.701C80.322 176.363 81.602 178.442 82.3471 179.546C82.0965 180.989 81.9272 182.479 81.7917 183.935L81.8256 183.969Z" fill="#2563EB"/>
<path opacity="0.5" d="M97.3154 142.722C94.6943 146.602 91.0504 151.648 89.1065 155.692C89.8516 153.023 90.5695 150.504 91.2333 148.242C92.2289 146.291 94.8907 141.347 97.9656 138.082C101.874 133.903 103.547 131.214 101.44 130.977C99.984 130.821 95.717 136.504 93.0417 142.146C93.6241 140.216 94.0847 138.759 94.3963 137.879C94.5249 137.493 94.6469 137.059 94.7688 136.606C97.5177 132.712 100.015 128.646 102.246 124.434C106.195 117.059 107.468 110.096 104.833 113.09C102.409 115.846 98.1891 129.548 94.8433 136.003C95.121 134.892 95.3919 133.659 95.6289 132.454C96.103 131.275 96.7262 130.083 97.0784 129.006C97.627 127.34 98.1079 125.62 98.4939 123.947C99.1369 121.286 99.4597 118.557 99.4557 115.819C99.5236 112.604 98.6477 109.439 96.9361 106.716C96.4823 106.039 93.7122 101.887 92.8723 104.007C92.7607 104.357 92.7398 104.73 92.8114 105.091C93.211 108.619 94.4911 111.864 95.2835 115.298C96.4688 120.438 95.6831 129.074 95.2835 132.745C95.1277 133.321 94.9381 134.045 94.7146 134.878C95.27 128.485 92.493 120.906 89.9261 119.578C86.7495 117.939 89.8651 124.373 92.3169 129.988C93.481 132.448 94.0273 135.154 93.9086 137.872C93.4074 139.721 92.8317 141.794 92.2357 143.893C92.1205 144.185 92.0054 144.469 91.9038 144.753C92.1727 143.384 92.284 141.989 92.2357 140.595C91.9986 136.924 87.84 129.568 85.0834 130.611C82.3268 131.654 86.9934 135.522 89.4926 140.033C90.7881 142.525 91.2802 145.357 90.9014 148.14C90.9014 148.303 90.8472 148.465 90.8269 148.628C90.5424 149.583 90.258 150.511 89.9803 151.384C89.303 153.416 88.7273 155.367 88.1515 157.25C88.858 154.52 89.1704 151.703 89.0794 148.885C88.7273 143.5 85.5778 138.421 82.9499 137.73C80.322 137.039 85.3137 145.81 87.0137 150.741C87.9116 153.628 88.0539 156.697 87.4268 159.654C86.6276 162.323 85.8623 164.951 85.0834 167.741C85.3035 164.095 85.2265 160.436 84.8531 156.803C84.3451 150.815 80.7893 146.989 78.3307 147.151C75.8721 147.314 78.4391 150.707 81.9813 157.988C83.842 161.81 84.6708 166.053 84.3858 170.294C84.0674 171.473 83.7423 172.679 83.4104 173.938C83.0379 175.374 82.7331 176.932 82.469 178.537C82.11 177.108 81.5817 175.022 80.9654 172.719C80.2476 170.171 79.7268 167.572 79.4076 164.944C79.0757 161.896 78.2765 158.083 75.2828 156.498C75.0797 156.355 74.8477 156.258 74.6031 156.215C74.3586 156.172 74.1075 156.183 73.8678 156.248C73.628 156.312 73.4053 156.429 73.2156 156.589C73.0259 156.749 72.8738 156.95 72.7701 157.175C72.489 157.829 72.4249 158.555 72.5872 159.248C72.9839 161.324 73.6678 163.334 74.6191 165.221C74.0296 166.349 73.7602 167.616 73.8402 168.886C73.8402 169.367 73.8876 169.841 73.9147 170.308C73.6505 169.827 73.3999 169.38 73.1629 168.953C72.7364 168.235 72.207 167.582 71.5916 167.016C71.7483 165.894 71.8252 164.763 71.8218 163.63C71.8218 162.14 70.0812 158.36 68.5098 161.164C67.8867 162.282 68.0086 164.49 67.9477 165.953C67.5142 166.353 67.3855 167.179 67.7445 168.486C67.3878 171.879 67.5661 175.308 68.2728 178.646L67.7377 177.697C66.9681 173.78 66.5152 169.807 66.3831 165.817C66.1867 159.234 67.2433 153.822 65.4417 151.797C63.6401 149.772 62.6512 156.911 63.4098 164.666C63.7733 168.222 64.7207 171.693 66.2138 174.941C64.4528 171.778 62.7121 168.554 61.0663 165.459C60.389 163.792 58.7093 159.309 59.1225 154.757C59.644 149.014 60.0233 144.32 57.8424 141.089C55.6615 137.859 55.2077 139.951 56.2778 146.691C57.0093 151.31 57.795 157.487 59.136 161.774C57.8559 159.315 56.6571 156.979 55.587 154.859C54.9842 152.752 53.555 147.327 53.555 142.816C53.555 137.093 52.9387 134.011 51.2455 135.251C50.067 136.131 50.8255 143.196 52.7287 149.149C51.8347 147.341 51.1642 145.952 50.7781 145.133C50.6088 144.76 50.4056 144.361 50.1821 143.941C49.5738 139.226 48.669 134.555 47.4729 129.954C45.3191 121.827 41.4991 115.907 41.6142 119.89C41.7294 123.561 47.9944 136.457 49.9518 143.46C49.3964 142.457 48.753 141.374 48.1028 140.324C47.649 139.145 47.29 137.852 46.8091 136.815C46.0777 135.231 45.2784 133.666 44.398 132.156C43.0441 129.769 41.4141 127.551 39.5417 125.545C37.395 123.149 34.5928 121.435 31.4818 120.614C30.6826 120.425 25.8331 119.26 26.6595 121.427C26.8125 121.759 27.0452 122.047 27.3368 122.267C30.046 124.57 33.1886 126.067 36.1078 128.038C40.4832 130.984 45.8 137.831 47.9944 140.805C48.2789 141.326 48.6311 141.99 49.0375 142.749C45.0753 137.696 37.8823 134.045 35.0986 134.831C31.6579 135.806 38.3293 138.38 43.9509 140.812C46.4812 141.814 48.7275 143.421 50.4937 145.492C51.3877 147.178 52.3833 149.088 53.379 151.032L53.7244 151.885C52.986 150.701 52.1133 149.605 51.1235 148.621C48.4143 146.095 40.3883 143.561 39.0811 146.203C37.774 148.844 43.8222 148.492 48.7394 150.077C51.3858 150.996 53.6845 152.708 55.3228 154.981L55.6005 155.394C56.0475 156.288 56.4742 157.162 56.867 157.988C57.7949 159.925 58.6687 161.754 59.5356 163.521C58.1916 161.032 56.4943 158.751 54.4965 156.748C50.5749 153.05 44.7976 151.486 42.4135 152.773C40.0294 154.06 49.6538 157.067 54.2391 159.546C56.8658 161.033 59.0672 163.169 60.6328 165.75C61.8655 168.249 63.105 170.687 64.4393 173.261C62.1132 170.445 59.5603 167.824 56.8061 165.425C52.3495 161.361 47.1342 161.029 45.4545 162.81C43.7748 164.592 47.9538 165.343 55.4989 168.229C59.4689 169.753 62.9712 172.288 65.6584 175.584C66.2273 176.661 66.8166 177.765 67.4329 178.91C68.1102 180.217 68.9704 181.572 69.878 182.919C68.6453 182.12 66.8369 180.955 64.8118 179.689C62.5495 178.316 60.3961 176.772 58.3707 175.069C56.0407 173.038 52.8574 170.83 49.5658 171.683C49.321 171.719 49.0872 171.809 48.8808 171.946C48.6745 172.083 48.5006 172.263 48.3715 172.474C48.2423 172.685 48.161 172.922 48.1333 173.168C48.1056 173.414 48.1322 173.663 48.2112 173.898C48.4525 174.565 48.9011 175.137 49.4912 175.53C52.5797 177.928 56.7316 179.079 60.3281 180.495C63.6253 181.787 67.0032 182.864 70.4402 183.719C71.2935 184.944 72.1876 186.157 73.0748 187.308L71.4629 187.356C69.5529 187.41 60.9376 183.509 56.5623 182.249C52.1869 180.989 48.096 183.373 52.6813 185.838C57.2667 188.304 69.7358 187.755 69.7358 187.755L73.339 187.647C74.1788 188.731 75.0119 189.76 75.7908 190.695H58.7093V195.436H62.0958L64.805 212.341H87.5217L90.2309 195.483H93.6174V190.742H82.32C82.2279 188.695 82.2845 186.644 82.4893 184.606C83.2407 183.836 84.0768 183.155 84.9818 182.574C89.9532 179.14 98.3856 178.856 100.621 172.245C101.162 170.647 100.553 168.608 98.6429 168.696C97.2883 168.757 95.8186 169.956 94.9652 170.945C92.1205 174.23 89.9803 177.636 86.2822 180.122C86.1197 180.237 83.783 182.093 82.6316 183.244C82.7535 182.168 82.916 181.016 83.126 179.783C84.0179 178.196 85.0396 176.685 86.1806 175.266C89.2014 171.507 93.807 169.306 97.0784 165.723C98.0808 164.625 99.4015 160.684 96.3401 161.659C94.9855 162.092 93.3735 164.151 92.3102 165.1C89.303 167.809 86.2145 170.694 84.2503 174.257C84.3384 173.904 84.4196 173.579 84.5077 173.2C86.6149 169.81 88.9932 166.596 91.6193 163.589C95.9676 158.638 100.424 155.407 100.499 152.698C100.573 149.989 94.9652 154.527 90.2038 160.731C88.0439 163.577 86.3687 166.76 85.2459 170.152C86.1196 166.637 87.0475 163.095 87.9551 159.695C88.5782 158.001 90.4273 153.599 93.8409 150.544C98.135 146.704 101.616 143.534 102.233 139.708C102.849 135.881 101.095 137.066 97.3154 142.722ZM73.2577 186.286C72.5804 185.412 71.9437 184.457 71.2258 183.414C70.7939 181.645 70.5084 179.844 70.3724 178.029C70.2797 176.475 70.35 174.916 70.5824 173.376C71.7383 174.808 72.9658 176.18 74.2601 177.487C74.2322 178.842 74.0665 180.19 73.7657 181.511C73.7183 181.707 73.2848 184.653 73.2238 186.286H73.2577ZM76.9422 190.742C76.0685 189.814 75.1135 188.71 74.0772 187.356C74.1071 186.283 74.2571 185.218 74.5243 184.179C74.9307 182.535 75.5261 180.945 76.2988 179.438C77.8634 180.969 79.0283 182.005 79.0283 182.005L81.7375 184.382C81.5208 186.746 81.3989 188.961 81.3244 190.762L76.9422 190.742ZM81.8256 183.969L80.6132 182.899C79.9359 182.289 78.71 179.932 77.3825 177.223C77.9521 176.079 78.4564 174.903 78.8929 173.701C80.322 176.363 81.602 178.442 82.3471 179.546C82.0965 180.989 81.9272 182.479 81.7917 183.935L81.8256 183.969Z" fill="#2563EB"/>
<path d="M234.408 226.382C251.547 226.382 265.442 223.398 265.442 219.717C265.442 216.036 251.547 213.052 234.408 213.052C217.268 213.052 203.374 216.036 203.374 219.717C203.374 223.398 217.268 226.382 234.408 226.382Z" fill="#2563EB"/>
<g opacity="0.7">
<path d="M234.408 226.382C251.547 226.382 265.442 223.398 265.442 219.717C265.442 216.036 251.547 213.052 234.408 213.052C217.268 213.052 203.374 216.036 203.374 219.717C203.374 223.398 217.268 226.382 234.408 226.382Z" fill="#F9C784" fill-opacity="0.9"/>
</g>
<path d="M205.155 81.4801C205.155 81.4801 205.155 83.7626 200.414 80.0307C195.673 76.2987 194.813 72.7768 201.45 68.8349C206.544 65.8074 214.712 64.7237 219.013 69.7628C222.291 73.6031 222.352 79.5769 225.921 83.1395C229.233 86.4582 236.907 87.2913 240.016 94.5452C243.125 101.799 237.943 100.56 240.226 107.82C242.508 115.081 248.523 115.487 244.784 122.721C241.045 129.954 234.421 134.54 224.262 129.975C214.102 125.41 217.001 118.156 210.37 113.801C197.942 105.694 196.289 93.1026 205.155 81.4801Z" fill="#263238" stroke="#263238" stroke-linecap="round" stroke-linejoin="round"/>
<path d="M207.323 87.7045C206.08 90.6435 205.67 93.8677 206.137 97.0241" stroke="#F9C784" stroke-opacity="0.9" stroke-width="0.5" stroke-linecap="round" stroke-linejoin="round"/>
<path d="M209.842 72.5126C210.817 74.3616 212.951 77.0234 217.658 79.5226C226.009 83.9657 229.172 85.2729 229.172 85.2729" stroke="#F9C784" stroke-opacity="0.9" stroke-width="0.5" stroke-linecap="round" stroke-linejoin="round"/>
<path d="M209.07 70.1218C209.096 70.4093 209.152 70.6931 209.239 70.9684" stroke="#F9C784" stroke-opacity="0.9" stroke-width="0.5" stroke-linecap="round" stroke-linejoin="round"/>
<path d="M236.744 95.8321C236.931 96.383 237.012 96.9646 236.981 97.5456" stroke="#F9C784" stroke-opacity="0.9" stroke-width="0.5" stroke-linecap="round" stroke-linejoin="round"/>
<path d="M215.938 81.2768C215.938 81.2768 218.437 83.4442 224.709 86.0518C229.321 87.9753 233.934 91.03 235.945 94.1794" stroke="#F9C784" stroke-opacity="0.9" stroke-width="0.5" stroke-linecap="round" stroke-linejoin="round"/>
<path d="M207.715 68.0356C207.715 68.0356 203.184 68.0966 205.975 73.813" stroke="#F9C784" stroke-opacity="0.9" stroke-width="0.5" stroke-linecap="round" stroke-linejoin="round"/>
<path d="M219.229 83.7017C221.192 86.4847 223.376 89.1052 225.759 91.538C229.416 95.1954 228.895 99.3744 228.109 101.203" stroke="#F9C784" stroke-opacity="0.9" stroke-width="0.5" stroke-linecap="round" stroke-linejoin="round"/>
<path d="M232.525 161.523C232.525 161.523 226.307 177.101 225.271 183.292C224.235 189.482 223.117 197.745 221.722 201.708C219.941 206.754 217.387 209.422 217.597 211.285C217.807 213.147 222.779 218.545 220.916 219.995C219.053 221.444 215.315 214.813 215.498 211.081C215.68 207.35 218.396 196.98 218.816 190.552C219.236 184.125 217.78 174.582 218.606 168.987C219.433 163.393 220.679 158.618 220.679 158.618C220.679 158.618 227.757 155.299 232.525 161.523Z" fill="#F9C784" fill-opacity="0.9" stroke="#263238" stroke-linecap="round" stroke-linejoin="round"/>
<path d="M219.46 163.386C219.46 163.386 225.271 171.06 226.72 177.901C228.345 184.908 231.456 191.484 235.844 197.183C239.785 202.161 243.043 211.203 243.043 211.203C243.043 211.203 242.63 218.044 243.456 220.117C244.283 222.189 246.565 220.53 246.775 217.211C246.985 213.892 245.421 209.713 244.574 207.641C243.727 205.568 241.235 194.095 239.156 187.647C237.076 181.199 235.214 173.342 233.554 168.987C231.895 164.632 229.619 159.241 229.619 159.241C229.619 159.241 218.843 158.205 219.46 163.386Z" fill="#F9C784" fill-opacity="0.9" stroke="#263238" stroke-linecap="round" stroke-linejoin="round"/>
<path d="M229.206 103.255L228.59 107.61C228.59 107.61 227.357 117.56 227.357 121.089C227.357 124.617 232.098 132.284 233.162 143.277C234.225 154.27 232.538 161.523 232.538 161.523C222.379 159.451 219.473 163.386 219.473 163.386C219.473 163.386 210.56 152.4 209.314 145.349C208.068 138.299 211.183 131.038 211.596 125.444C212.009 119.849 208.487 115.487 205.169 109.06C201.85 102.632 201.647 95.7914 205.379 95.1683C209.111 94.5452 214.502 94.9583 214.502 94.9583C214.502 94.9583 223.002 95.5815 226.734 96.6177C230.466 97.654 230.676 99.7333 230.676 99.7333" fill="#2563EB"/>
<path d="M229.206 103.255L228.59 107.61C228.59 107.61 227.357 117.56 227.357 121.089C227.357 124.617 232.098 132.284 233.162 143.277C234.225 154.27 232.538 161.523 232.538 161.523C222.379 159.451 219.473 163.386 219.473 163.386C219.473 163.386 210.56 152.4 209.314 145.349C208.068 138.299 211.183 131.038 211.596 125.444C212.009 119.849 208.487 115.487 205.169 109.06C201.85 102.632 201.647 95.7914 205.379 95.1683C209.111 94.5452 214.502 94.9583 214.502 94.9583C214.502 94.9583 223.002 95.5815 226.734 96.6177C230.466 97.654 230.676 99.7333 230.676 99.7333" stroke="#263238" stroke-miterlimit="10" stroke-linecap="round"/>
<path d="M220.279 134.702C220.279 134.702 227.472 145.837 230.019 154.181" stroke="#263238" stroke-width="0.5" stroke-linecap="round" stroke-linejoin="round"/>
<path d="M218.424 130.991C218.424 130.991 224.221 136.558 226.307 140.73" stroke="#263238" stroke-width="0.5" stroke-linecap="round" stroke-linejoin="round"/>
<path d="M211.17 91.2467C211.17 91.2467 213.452 96.2249 213.452 97.058C213.452 97.8911 217.807 102.029 219.257 100.993C220.706 99.9568 219.67 97.4711 218.633 95.1886C217.597 92.9061 215.525 89.1742 215.525 89.1742C214.981 89.8012 214.313 90.3089 213.564 90.6656C212.814 91.0222 211.999 91.2201 211.17 91.2467Z" fill="#F9C784" fill-opacity="0.9" stroke="#263238" stroke-miterlimit="10" stroke-linecap="round"/>
<path d="M205.988 73.813L202.873 80.6537C202.873 80.6537 204.945 86.6682 207.228 89.567C209.51 92.4659 212.646 92.6826 214.278 91.6463C217.489 89.6144 215.938 81.2769 215.938 81.2769C215.938 81.2769 206.815 77.7481 205.988 73.813Z" fill="#F9C784" fill-opacity="0.9" stroke="#263238" stroke-miterlimit="10" stroke-linecap="round"/>
<path d="M228.17 97.0376C231.498 98.709 234.713 100.596 237.794 102.686C241.601 105.301 251.34 115.684 249.925 118.379C248.509 121.075 231.732 130.571 230.696 130.571C229.66 130.571 228.38 129.216 228.38 129.216C228.38 129.216 226.896 127.15 226.07 127.15C225.244 127.15 226.653 125.213 227.892 124.59C229.132 123.967 231.055 128.363 231.055 128.363C231.055 128.363 240.978 118.528 241.601 116.449C242.224 114.37 226.51 107.373 226.51 107.373" fill="#2563EB"/>
<path d="M228.17 97.0376C231.498 98.709 234.713 100.596 237.794 102.686C241.601 105.301 251.34 115.684 249.925 118.379C248.509 121.075 231.732 130.571 230.696 130.571C229.66 130.571 228.38 129.216 228.38 129.216C228.38 129.216 226.896 127.15 226.07 127.15C225.244 127.15 226.653 125.213 227.892 124.59C229.132 123.967 231.055 128.363 231.055 128.363C231.055 128.363 240.978 118.528 241.601 116.449C242.224 114.37 226.51 107.373 226.51 107.373" stroke="#263238" stroke-linecap="round" stroke-linejoin="round"/>
<path d="M225.738 115.833L226.104 110.658C226.789 110.61 227.434 110.316 227.92 109.831C228.407 109.346 228.702 108.702 228.752 108.017L229.023 104.149L223.32 103.743L223.049 107.61C223 108.295 223.2 108.974 223.612 109.523C224.024 110.072 224.62 110.454 225.291 110.597L224.919 115.772L222.067 115.569L222.006 116.49L228.522 116.95L228.59 116.036L225.738 115.833Z" fill="#F9C784" fill-opacity="0.9" stroke="#263238" stroke-linecap="round" stroke-linejoin="round"/>
<path d="M205.365 95.1683C205.365 95.1683 199.947 96.2046 200.177 100.77C200.407 105.335 199.351 129.799 201.423 130.422C203.496 131.045 221.539 115.284 221.539 115.284C221.539 115.284 225.474 116.524 226.28 116.11C227.086 115.697 226.903 114.661 227.52 113.002C228.136 111.342 228.766 111.132 225.867 111.342C224.58 111.437 222.629 111.254 221.492 112.02C219.616 113.245 218.525 115.216 216.561 116.483C213.992 118.131 211.361 119.682 208.67 121.136C204.607 123.317 206.151 114.647 206.34 112.744C206.611 109.927 206.977 107.109 207.411 104.312" fill="#2563EB"/>
<path d="M205.365 95.1683C205.365 95.1683 199.947 96.2046 200.177 100.77C200.407 105.335 199.351 129.799 201.423 130.422C203.496 131.045 221.539 115.284 221.539 115.284C221.539 115.284 225.474 116.524 226.28 116.11C227.086 115.697 226.903 114.661 227.52 113.002C228.136 111.342 228.766 111.132 225.867 111.342C224.58 111.437 222.629 111.254 221.492 112.02C219.616 113.245 218.525 115.216 216.561 116.483C213.992 118.131 211.361 119.682 208.67 121.136C204.607 123.317 206.151 114.647 206.34 112.744C206.611 109.927 206.977 107.109 207.411 104.312" stroke="#263238" stroke-miterlimit="10" stroke-linecap="round"/>
<path d="M225.894 111.342C224.607 111.437 222.657 111.254 221.519 112.02C219.643 113.245 218.552 115.216 216.588 116.483C214.019 118.131 211.389 119.682 208.697 121.136C205.074 123.093 205.927 116.32 206.273 113.53C204.098 113.717 201.992 114.381 200.103 115.474C200.103 122.823 200.306 130.103 201.423 130.442C203.496 131.058 221.539 115.304 221.539 115.304C221.539 115.304 225.474 116.544 226.28 116.131C227.086 115.718 226.903 114.681 227.52 113.022C228.136 111.363 228.793 111.132 225.894 111.342Z" fill="#F9C784" fill-opacity="0.9" stroke="#263238" stroke-linecap="round" stroke-linejoin="round"/>
<path d="M249.925 118.379C250.954 116.469 246.342 110.692 242.21 106.561C239.317 107.43 236.732 109.108 234.76 111.396C238.444 113.347 241.919 115.46 241.621 116.476C240.998 118.556 231.075 128.39 231.075 128.39C231.075 128.39 229.159 123.994 227.912 124.617C226.666 125.24 225.257 127.178 226.091 127.178C226.924 127.178 228.4 129.243 228.4 129.243C228.4 129.243 229.68 130.598 230.716 130.598C231.753 130.598 248.475 121.048 249.925 118.379Z" fill="#F9C784" fill-opacity="0.9" stroke="#263238" stroke-linecap="round" stroke-linejoin="round"/>
<path d="M245.963 211.596C245.545 211.279 245.042 211.096 244.518 211.07C243.995 211.045 243.476 211.179 243.03 211.454C242.962 212.7 242.718 218.281 243.457 220.117C244.29 222.189 246.565 220.53 246.775 217.211C246.812 215.308 246.537 213.411 245.963 211.596Z" fill="#263238" stroke="#263238" stroke-linecap="round" stroke-linejoin="round"/>
<path d="M217.624 210.695C216.947 210.438 216.168 210.492 215.525 211.691C215.708 215.491 219.148 221.37 220.943 219.995C222.738 218.62 217.834 213.154 217.624 211.285C217.598 211.089 217.598 210.891 217.624 210.695Z" fill="#263238" stroke="#263238" stroke-linecap="round" stroke-linejoin="round"/>
<path d="M166.224 226.382C183.364 226.382 197.258 223.398 197.258 219.717C197.258 216.036 183.364 213.052 166.224 213.052C149.084 213.052 135.19 216.036 135.19 219.717C135.19 223.398 149.084 226.382 166.224 226.382Z" fill="#2563EB"/>
<g opacity="0.7">
<path d="M166.224 226.382C183.364 226.382 197.258 223.398 197.258 219.717C197.258 216.036 183.364 213.052 166.224 213.052C149.084 213.052 135.19 216.036 135.19 219.717C135.19 223.398 149.084 226.382 166.224 226.382Z" fill="#F9C784" fill-opacity="0.9"/>
</g>
<path d="M152.089 136.104C152.089 136.104 148.926 145.356 148.702 146.575C148.479 147.795 143.853 163.217 142.837 172.99C141.821 182.764 143.04 185.378 146.488 192.286C149.935 199.195 156.85 214.217 156.85 214.217L159.695 214.014C159.695 214.014 158.069 196.757 156.647 190.864C155.225 184.972 153.396 180.102 154.006 176.851C154.615 173.6 161.903 155.536 161.903 155.536C161.903 155.536 163.549 171.568 164.565 182.533C165.581 193.499 177.366 217.875 177.366 217.875L180.204 217.468C180.204 217.468 180.407 200.204 178.984 193.302C177.562 186.401 177.569 184.972 177.569 178.07C177.569 171.168 174.819 149.576 175.307 146.399C175.855 142.803 174.501 138.272 174.501 138.272C174.501 138.272 156.965 139.335 152.089 136.104Z" fill="#263238" stroke="#263238" stroke-linecap="round" stroke-linejoin="round"/>
<path d="M158.09 149.332L161.93 155.509L153.999 151.174" stroke="#F9C784" stroke-opacity="0.9" stroke-width="0.5" stroke-linecap="round" stroke-linejoin="round"/>
<path d="M170.985 140.331C170.742 140.956 170.635 141.626 170.67 142.296C170.705 142.967 170.882 143.622 171.189 144.218C171.518 144.884 172.008 145.457 172.615 145.886C173.221 146.314 173.926 146.583 174.663 146.67C174.663 146.67 175.686 176.133 175.483 178.185" stroke="#F9C784" stroke-opacity="0.9" stroke-width="0.5" stroke-linecap="round" stroke-linejoin="round"/>
<path d="M175.686 181.043C175.686 181.043 175.896 184.118 175.896 186.57C175.896 189.022 179.37 198.436 179.37 203.144" stroke="#F9C784" stroke-opacity="0.9" stroke-width="0.5" stroke-linecap="round" stroke-linejoin="round"/>
<path d="M191.149 123.669C187.898 115.135 171.676 99.2051 168.798 97.1732C165.919 95.1413 160.67 95.3445 160.67 95.3445C156.866 94.8023 153.402 92.8576 150.958 89.8922C146.697 84.8124 142.024 76.0753 141.618 71.4087C141.211 66.7421 140.399 54.5507 140.399 54.5507C140.399 54.5507 142.634 49.2677 142.43 47.6422C142.227 46.0167 139.383 44.3912 137.351 45.8135C135.319 47.2358 134.303 49.0645 135.319 51.2996C135.892 52.4412 136.237 53.6835 136.335 54.957C135.294 63.3422 135.568 71.8385 137.148 80.1391C139.789 93.3397 146.508 102.077 148.337 105.321C150.165 108.565 151.682 132.068 151.682 135.319C151.682 138.57 153.105 139.383 158.99 139.789C164.876 140.195 173.309 139.504 174.528 138.285C175.747 137.066 174.927 118.122 174.927 118.122C174.927 118.122 185.486 129.697 187.315 131.323C189.144 132.948 194.4 132.196 191.149 123.669Z" fill="#F9C784" fill-opacity="0.9" stroke="#263238" stroke-linecap="round" stroke-linejoin="round"/>
<path d="M191.149 123.669C187.898 115.135 171.676 99.2051 168.798 97.1732C165.919 95.1413 160.67 95.3445 160.67 95.3445C156.866 94.8023 153.402 92.8576 150.958 89.8922C147.563 85.7056 144.823 81.0288 142.83 76.0211L136.66 77.3757C136.802 78.2833 136.965 79.2044 137.148 80.1255C139.789 93.3261 146.508 102.063 148.337 105.308C150.165 108.552 151.682 132.054 151.682 135.305C151.682 138.556 153.105 139.369 158.99 139.775C164.876 140.182 173.309 139.491 174.528 138.272C175.747 137.053 174.927 118.109 174.927 118.109C174.927 118.109 185.486 129.684 187.315 131.309C189.144 132.935 194.4 132.196 191.149 123.669Z" fill="#2563EB" stroke="#263238" stroke-linecap="round" stroke-linejoin="round"/>
<path d="M191.989 124.265C191.989 124.265 191.034 121.041 185.656 120.919C180.278 120.797 178.727 124.739 180.041 127.367C181.355 129.995 184.464 133.7 189.002 132.508C193.54 131.316 193.302 126.893 191.989 124.265Z" fill="#F9C784" fill-opacity="0.9" stroke="#263238" stroke-linecap="round" stroke-linejoin="round"/>
<path d="M166.095 94.0779C166.095 94.0779 168.073 94.4301 168.54 96.1775C168.973 98.0201 168.933 99.942 168.425 101.765C167.958 103.045 166.21 106.31 166.21 106.31C166.21 106.31 161.781 100.952 161.198 100.6C160.616 100.248 154.425 101.88 154.425 101.88C154.425 101.88 155.238 96.8751 157.135 95.0125C159.031 93.15 164.93 93.8476 166.095 94.0779Z" fill="#F9C784" fill-opacity="0.9" stroke="#263238" stroke-miterlimit="10" stroke-linecap="round"/>
<path d="M167.755 90.1225C167.755 90.1225 166.475 94.6604 166.475 96.4078C166.475 98.1552 161.117 104.915 161.117 104.915L158.902 95.8253L159.837 89.8854C159.837 89.8854 164.578 92.6827 167.755 90.1225Z" fill="#F9C784" fill-opacity="0.9" stroke="#263238" stroke-miterlimit="10" stroke-linecap="round"/>
<path d="M158.171 76.4952C158.171 76.4952 157.826 82.6654 156.776 85.2256C155.726 87.7858 156.545 91.8699 159.106 93.3532C161.666 94.8365 165.513 93.2381 167.721 91.7209C169.929 90.2038 170.985 87.0611 172.15 83.5933C173.315 80.1255 173.431 75.0864 169.705 73.4338C165.98 71.7812 158.171 76.4952 158.171 76.4952Z" fill="#F9C784" fill-opacity="0.9" stroke="#263238" stroke-miterlimit="10" stroke-linecap="round"/>
<path d="M170.146 86.6615C170.146 86.6615 169.55 86.4651 168.954 84.6838C168.357 82.9025 170.146 82.6993 170.146 80.5184C170.146 78.3375 168.161 75.7773 165.404 76.5494C162.124 77.3153 158.697 77.1772 155.489 76.1498C152.908 75.1609 153.904 69.011 159.255 67.819C164.605 66.6269 162.431 70.3995 164.612 70.3995C166.793 70.3995 170.362 68.2186 171.385 70.0067C172.408 71.7947 171.182 72.98 172.74 73.7724C174.297 74.5649 175.51 75.1609 175.51 77.7414C175.51 80.3219 171.94 86.2686 171.94 86.2686C171.94 86.2686 171.338 88.646 170.146 86.6615Z" fill="#263238" stroke="#263238" stroke-miterlimit="10" stroke-linecap="round"/>
<path d="M169.109 87.9077C169.109 87.9077 170.62 84.8802 172.022 85.4626C173.424 86.0451 172.489 87.6706 170.972 88.9575C169.455 90.2444 168.527 89.7703 168.527 89.7703" fill="#F9C784" fill-opacity="0.9"/>
<path d="M169.109 87.9077C169.109 87.9077 170.62 84.8802 172.022 85.4626C173.424 86.0451 172.489 87.6706 170.972 88.9575C169.455 90.2444 168.527 89.7703 168.527 89.7703" stroke="#263238" stroke-miterlimit="10" stroke-linecap="round"/>
<path d="M166.759 120.743L165.845 115.738C166.482 115.527 167.021 115.092 167.364 114.515C167.706 113.937 167.828 113.256 167.707 112.595L167.03 108.857L161.524 109.866L162.201 113.604C162.324 114.265 162.68 114.859 163.205 115.278C163.73 115.697 164.388 115.913 165.059 115.887L165.973 120.885L163.224 121.387L163.386 122.274L169.678 121.122L169.516 120.235L166.759 120.743Z" fill="#F9C784" fill-opacity="0.9" stroke="#263238" stroke-linecap="round" stroke-linejoin="round"/>
<path d="M185.893 123.168C185.893 123.168 183.387 123.066 176.756 120.94C170.701 118.989 168.94 117.255 167.382 116.551C166.251 116.043 162.783 115.25 162.377 116.469C161.971 117.689 164.368 117.865 164.368 117.865C164.368 117.865 164.571 118.271 165.791 120.296C167.01 122.321 169.854 121.312 170.667 121.312C171.48 121.312 181.03 129.67 184.274 131.472C187.518 133.273 191.995 132.081 191.995 129.033C191.995 125.986 191.989 123.757 185.893 123.168Z" fill="#F9C784" fill-opacity="0.9" stroke="#263238" stroke-miterlimit="10" stroke-linecap="round"/>
<path d="M141.415 51.8821C141.415 51.8821 144.259 49.647 142.43 47.6151C140.602 45.5832 136.741 48.0214 136.944 49.0374C137.148 50.0533 139.789 49.0374 139.789 49.0374C139.789 49.0374 138.163 51.0693 138.976 52.0852" fill="#F9C784" fill-opacity="0.9"/>
<path d="M141.415 51.8821C141.415 51.8821 144.259 49.647 142.43 47.6151C140.602 45.5832 136.741 48.0214 136.944 49.0374C137.148 50.0533 139.789 49.0374 139.789 49.0374C139.789 49.0374 138.163 51.0693 138.976 52.0852" stroke="#263238" stroke-linecap="round" stroke-linejoin="round"/>
<path d="M177.393 217.848C177.393 217.848 172.313 223.943 173.735 226.585C175.158 229.226 179.831 224.147 180.231 217.441L177.393 217.848Z" fill="#F9C784" fill-opacity="0.9" stroke="#263238" stroke-miterlimit="10" stroke-linecap="round"/>
<path d="M156.877 214.19C156.877 214.19 149.969 216.425 149.969 219.88C149.969 223.334 158.3 217.035 159.722 213.987L156.877 214.19Z" fill="#F9C784" fill-opacity="0.9" stroke="#263238" stroke-linecap="round" stroke-linejoin="round"/>
<path d="M142.546 73.3457C141.374 73.1967 135.366 74.2668 135.366 75.7637C135.366 76.5967 135.725 79.2247 136.558 79.4685C137.391 79.7123 143.724 78.5135 144.083 78.1545C144.442 77.7956 143.446 73.6437 142.999 73.4541C142.854 73.3982 142.701 73.3618 142.546 73.3457Z" fill="#F9C784" fill-opacity="0.9" stroke="#263238" stroke-linecap="round" stroke-linejoin="round"/>
<path d="M102.612 226.382C119.751 226.382 133.646 223.398 133.646 219.717C133.646 216.036 119.751 213.052 102.612 213.052C85.4724 213.052 71.578 216.036 71.578 219.717C71.578 223.398 85.4724 226.382 102.612 226.382Z" fill="#2563EB"/>
<g opacity="0.7">
<path d="M102.612 226.382C119.751 226.382 133.646 223.398 133.646 219.717C133.646 216.036 119.751 213.052 102.612 213.052C85.4724 213.052 71.578 216.036 71.578 219.717C71.578 223.398 85.4724 226.382 102.612 226.382Z" fill="#F9C784" fill-opacity="0.9"/>
</g>
<path d="M108.884 90.3053C108.884 90.3053 106.425 95.3918 106.425 97.4982C106.389 98.564 106.508 99.6295 106.777 100.661L100.282 94.5181C100.282 94.5181 102.741 88.9033 102.917 87.8467C103.093 86.7901 108.884 90.3053 108.884 90.3053Z" fill="#F9C784" fill-opacity="0.9" stroke="#263238" stroke-linecap="round" stroke-linejoin="round"/>
<path d="M110.462 74.6799C111.613 75.7907 112.303 77.2954 112.392 78.8927C112.392 81.3513 113.069 83.2817 113.97 83.4578C114.871 83.6339 113.449 84.6904 113.449 84.6904L112.771 85.5642C112.771 85.5642 113.124 90.1292 111.193 91.7073C109.263 93.2854 102.239 88.7271 102.239 88.7271C102.239 88.7271 102.239 85.9164 102.592 80.8231C102.944 75.7298 106.425 73.6369 110.462 74.6799Z" fill="#F9C784" fill-opacity="0.9" stroke="#263238" stroke-linecap="round" stroke-linejoin="round"/>
<path d="M110.462 76.9625C111.272 76.871 112.042 76.562 112.691 76.0684C113.339 75.5747 113.842 74.9148 114.146 74.1584C115.203 71.5237 114.322 66.0782 108.884 65.3535C103.445 64.6288 106.249 67.8121 102.917 69.0381C99.5844 70.264 93.9628 69.3902 91.6803 74.1313C89.3978 78.8724 92.2086 84.8327 91.5042 86.7698C90.7998 88.7068 83.9591 91.5109 80.7961 96.9293C77.6331 102.348 83.783 113.957 83.2547 116.761C82.7264 119.565 78.5136 122.03 80.7961 127.469C83.0786 132.907 91.3281 136.07 98.1757 131.533C105.023 126.995 101.508 110.645 98.7039 106.256C95.8999 101.867 101.223 93.1635 104.204 90.1766C107.184 87.1897 105.023 81.1549 105.023 78.8724C105.023 76.5899 110.462 76.9625 110.462 76.9625Z" fill="#2563EB" stroke="#263238" stroke-linecap="round" stroke-linejoin="round"/>
<path d="M114.126 70.4062C114.126 70.4062 115.623 73.3998 109.636 74.4023C103.648 75.4047 97.4441 78.1409 97.9115 82.3808C98.3788 86.6207 98.4127 95.1005 92.6759 97.8436C86.9392 100.587 82.9499 102.585 82.1981 109.317" stroke="#263238" stroke-width="0.5" stroke-linecap="round" stroke-linejoin="round"/>
<path d="M83.1937 130.774C83.1937 130.774 79.7056 126.033 84.1961 119.544C88.6866 113.056 92.4253 108.856 96.6381 102.083" stroke="#263238" stroke-width="0.5" stroke-linecap="round" stroke-linejoin="round"/>
<path d="M91.5042 86.7969C92.2424 84.3088 92.6366 81.7315 92.6759 79.1366C92.6759 75.1473 96.6652 71.158 101.901 70.9074C107.136 70.6568 112.128 69.9118 111.634 66.6675" stroke="#263238" stroke-width="0.5" stroke-linecap="round" stroke-linejoin="round"/>
<path d="M100.106 131.885C100.106 131.885 96.4214 137.5 99.4286 147.334C102.436 157.168 107.157 169.8 106.981 173.661C106.804 177.521 104.698 184.193 104.698 189.455C104.698 194.718 102.944 210.174 102.944 210.174L106.1 211.4C106.1 211.4 114.526 190.16 115.758 181.382C116.991 172.604 117.16 157.866 117.16 157.866C117.16 157.866 118.21 144.171 115.054 132.237C115.027 132.257 103.79 128.573 100.106 131.885Z" fill="#F9C784" fill-opacity="0.9" stroke="#263238" stroke-linecap="round" stroke-linejoin="round"/>
<path d="M107.888 153.22C107.888 153.22 111.776 170.613 111.776 175.523C111.776 180.434 105.003 210.513 105.003 210.513" stroke="#263238" stroke-width="0.5" stroke-linecap="round" stroke-linejoin="round"/>
<path d="M130.388 96.5635C129.616 95.7846 127.679 97.7217 127.388 98.5954C127.096 99.4691 127.868 104.217 127.868 104.217C127.868 104.217 120.818 119.118 118.887 119.619C116.957 120.12 112.392 112.595 112.392 112.595L112.04 122.755C112.04 122.755 118.711 129.074 120.994 127.848C123.276 126.622 130.476 103.966 130.476 103.966C130.667 102.917 130.969 101.891 131.377 100.905C131.939 99.6655 131.18 97.3424 130.388 96.5635Z" fill="#F9C784" fill-opacity="0.9" stroke="#263238" stroke-linecap="round" stroke-linejoin="round"/>
<path d="M127.679 102.185C127.679 102.185 126.514 98.6971 126.514 97.6269C126.564 96.1261 126.76 94.6337 127.096 93.1703C127.388 92.1001 128.261 93.1703 128.261 94.1388C128.239 94.95 128.173 95.7593 128.065 96.5636C128.065 96.5636 129.23 98.1146 129.128 99.3744L129.033 100.634" fill="#F9C784" fill-opacity="0.9"/>
<path d="M127.679 102.185C127.679 102.185 126.514 98.6971 126.514 97.6269C126.564 96.1261 126.76 94.6337 127.096 93.1703C127.388 92.1001 128.261 93.1703 128.261 94.1388C128.239 94.95 128.173 95.7593 128.065 96.5636C128.065 96.5636 129.23 98.1146 129.128 99.3744L129.033 100.634" stroke="#263238" stroke-linecap="round" stroke-linejoin="round"/>
<path d="M131.56 100.153L130.673 95.3106C131.288 95.1031 131.809 94.6812 132.14 94.1216C132.471 93.5621 132.589 92.9024 132.474 92.2627L131.797 88.6391L126.46 89.6212L127.137 93.2448C127.257 93.8841 127.603 94.4589 128.111 94.8643C128.62 95.2697 129.257 95.4786 129.907 95.4528L130.794 100.302L128.126 100.79L128.282 101.643L134.377 100.526L134.222 99.6724L131.56 100.153Z" fill="#F9C784" fill-opacity="0.9" stroke="#263238" stroke-linecap="round" stroke-linejoin="round"/>
<path d="M132.941 92.3981C132.851 92.1918 132.719 92.0057 132.555 91.851C132.391 91.6963 132.198 91.576 131.986 91.4973C131.634 91.3822 131.269 91.4228 131.235 92.0595C131.167 93.3396 132.02 99.0831 132.217 97.8233C132.386 96.7058 133.558 93.7256 132.941 92.3981Z" fill="#F9C784" fill-opacity="0.9" stroke="#263238" stroke-linecap="round" stroke-linejoin="round"/>
<path d="M132.264 93.4548C132.174 93.2478 132.043 93.0612 131.879 92.9063C131.715 92.7515 131.521 92.6316 131.309 92.5539C130.957 92.432 130.591 92.4727 130.557 93.1161C130.49 94.3894 132.02 98.4194 132.217 97.1799C132.386 96.042 132.88 94.7823 132.264 93.4548Z" fill="#F9C784" fill-opacity="0.9" stroke="#263238" stroke-linecap="round" stroke-linejoin="round"/>
<path d="M132.115 94.728C131.991 94.4629 131.787 94.2428 131.533 94.0981C131.126 93.8679 130.517 93.6782 130.469 94.5181C130.402 95.7914 131.865 99.3201 132.061 98.0603C132.257 96.8006 132.799 96.1165 132.115 94.728Z" fill="#F9C784" fill-opacity="0.9" stroke="#263238" stroke-linecap="round" stroke-linejoin="round"/>
<path d="M131.566 95.9404C131.477 95.7334 131.346 95.5468 131.181 95.392C131.017 95.2371 130.823 95.1173 130.611 95.0396C130.259 94.9177 129.934 94.9651 129.866 95.6018C129.799 96.8751 131.641 100.77 131.837 99.5098C132.137 98.3221 132.042 97.0693 131.566 95.9404Z" fill="#F9C784" fill-opacity="0.9" stroke="#263238" stroke-linecap="round" stroke-linejoin="round"/>
<path d="M96.4485 95.1547C96.6928 94.7637 97.0185 94.4298 97.4034 94.1759C97.7883 93.922 98.2234 93.754 98.679 93.6833C99.1347 93.6126 99.6002 93.6409 100.044 93.7662C100.488 93.8916 100.899 94.111 101.251 94.4097C104.684 97.2747 111.166 102.72 113.442 104.874C116.598 107.854 114.119 113.476 114.119 115.758C114.119 118.041 115.176 132.609 115.176 133.483C115.176 134.357 112.013 135.413 108.504 134.54C104.996 133.666 100.106 131.885 100.106 131.885C100.106 131.885 101.86 123.08 100.458 120.303C99.2254 117.858 92.0731 102.476 96.4485 95.1547Z" fill="#263238" stroke="#263238" stroke-linecap="round" stroke-linejoin="round"/>
<path d="M100.282 132.955C100.282 132.955 95.5409 138.373 96.9429 145.424C98.3449 152.475 104.671 154.019 108.179 156.83C111.688 159.64 122.748 166.657 122.748 166.657C122.748 166.657 115.901 173.153 112.392 178.95C108.884 184.748 102.233 190.004 102.233 190.004L103.987 192.639C103.987 192.639 121.014 180.352 126.277 175.611C131.539 170.87 135.082 167.186 135.082 165.452C135.082 163.718 121.021 148.228 116.957 143.141C114.28 139.941 110.839 137.468 106.953 135.949" fill="#F9C784" fill-opacity="0.9"/>
<path d="M100.282 132.955C100.282 132.955 95.5409 138.373 96.9429 145.424C98.3449 152.475 104.671 154.019 108.179 156.83C111.688 159.64 122.748 166.657 122.748 166.657C122.748 166.657 115.901 173.153 112.392 178.95C108.884 184.748 102.233 190.004 102.233 190.004L103.987 192.639C103.987 192.639 121.014 180.352 126.277 175.611C131.539 170.87 135.082 167.186 135.082 165.452C135.082 163.718 121.021 148.228 116.957 143.141C114.28 139.941 110.839 137.468 106.953 135.949" stroke="#263238" stroke-linecap="round" stroke-linejoin="round"/>
<path d="M122.748 166.657C124.834 165.764 127.119 165.435 129.372 165.702" stroke="#263238" stroke-width="0.5" stroke-linecap="round" stroke-linejoin="round"/>
<path d="M101.955 134.594C101.955 134.594 99.2932 140.527 101.955 144.212C104.617 147.896 124.258 163.65 125.898 164.463C127.537 165.276 128.553 166.102 127.53 167.328C126.507 168.554 103.824 191.067 103.824 191.067" stroke="#263238" stroke-width="0.5" stroke-linecap="round" stroke-linejoin="round"/>
<path d="M104.143 99.6046C104.143 99.6046 101.731 93.1093 97.7557 93.9085C92.3373 94.9854 93.4345 119.795 92.0325 120.493C90.6305 121.19 81.1483 105.924 80.4439 105.05C79.7395 104.176 80.9722 103.12 79.0419 101.542C77.1116 99.9635 76.7594 100.661 74.653 99.4352C72.5466 98.2093 71.8422 98.907 72.0183 99.7807C72.1944 100.654 75.1813 101.711 75.1813 101.711C75.1813 101.711 71.3207 101.711 69.5665 101.189C67.8123 100.668 68.8892 101.867 69.3904 102.768C69.8916 103.668 73.251 105.05 74.4769 105.05C75.5466 105.117 76.6065 105.294 77.6399 105.578C77.6399 105.578 83.0583 118.914 85.7133 122.43C88.3683 125.945 91.6803 131.729 94.6672 128.573C97.6541 125.416 102.212 105.226 102.212 105.226" fill="#263238"/>
<path d="M104.143 99.6046C104.143 99.6046 101.731 93.1093 97.7557 93.9085C92.3373 94.9854 93.4345 119.795 92.0325 120.493C90.6305 121.19 81.1483 105.924 80.4439 105.05C79.7395 104.176 80.9722 103.12 79.0419 101.542C77.1116 99.9635 76.7594 100.661 74.653 99.4352C72.5466 98.2093 71.8422 98.907 72.0183 99.7807C72.1944 100.654 75.1813 101.711 75.1813 101.711C75.1813 101.711 71.3207 101.711 69.5665 101.189C67.8123 100.668 68.8892 101.867 69.3904 102.768C69.8916 103.668 73.251 105.05 74.4769 105.05C75.5466 105.117 76.6065 105.294 77.6399 105.578C77.6399 105.578 83.0583 118.914 85.7133 122.43C88.3683 125.945 91.6803 131.729 94.6672 128.573C97.6541 125.416 102.212 105.226 102.212 105.226" stroke="#263238" stroke-linecap="round" stroke-linejoin="round"/>
<path d="M93.3668 107.719C92.8114 114.018 92.6895 120.154 92.0122 120.493C90.6034 121.17 82.6451 109.656 81.1077 104.644C80.7758 103.574 80.9519 103.12 79.0216 101.535C77.0913 99.95 76.7391 100.661 74.6327 99.4353C72.5263 98.2094 71.8219 98.907 71.998 99.7807C72.1741 100.654 75.1609 101.711 75.1609 101.711C75.1609 101.711 71.3003 101.711 69.5461 101.19C67.7919 100.668 68.8688 101.867 69.37 102.768C69.8712 103.668 73.2306 105.05 74.4566 105.05C75.5263 105.117 76.5862 105.294 77.6196 105.578C77.6196 105.578 83.038 118.914 85.693 122.43C88.348 125.945 91.66 131.729 94.6469 128.573C96.4282 126.676 98.7784 118.698 100.384 112.582C97.7421 109.331 95.2835 108.091 93.3668 107.719Z" fill="#F9C784" fill-opacity="0.9" stroke="#263238" stroke-linecap="round" stroke-linejoin="round"/>
<path d="M102.917 210.194C102.917 210.194 98.7039 213.174 99.0494 214.935C99.3948 216.696 102.388 217.746 102.741 218.274C103.093 218.803 106.859 222.541 108.525 222.623C110.191 222.704 109.744 221.566 109.087 220.449C108.43 219.331 106.425 215.992 106.425 214.414C106.417 213.408 106.299 212.407 106.073 211.427L102.917 210.194Z" fill="#F9C784" fill-opacity="0.9" stroke="#263238" stroke-linecap="round" stroke-linejoin="round"/>
<path d="M102.212 190.004C102.212 190.004 96.943 190.458 96.4486 190.539C95.9541 190.62 94.8027 190.539 95.4597 194C96.1167 197.461 95.541 200.922 96.2047 202.981C96.8685 205.04 97.6 205.69 97.9318 205.365C98.2637 205.04 99.2458 201.823 100.323 199.188C101.371 196.917 102.59 194.727 103.967 192.639L102.212 190.004Z" fill="#F9C784" fill-opacity="0.9" stroke="#263238" stroke-linecap="round" stroke-linejoin="round"/>
<path d="M100.025 193.77L99.6589 190.234C98.2433 190.356 96.7262 190.498 96.4688 190.539C95.9744 190.627 94.823 190.539 95.4799 194C96.1369 197.461 95.5612 200.922 96.225 202.981C96.8887 205.04 97.6202 205.69 97.9521 205.365C98.284 205.04 99.2661 201.823 100.343 199.188C101.051 197.582 101.87 196.027 102.795 194.535C101.927 194.109 100.988 193.849 100.025 193.77Z" fill="#263238" stroke="#263238" stroke-linecap="round" stroke-linejoin="round"/>
<path d="M106.425 214.407C106.423 213.834 106.382 213.261 106.303 212.693L103.824 213.777L100.743 212.016C99.774 212.958 98.8868 214.089 99.0493 214.928C99.4015 216.683 102.388 217.739 102.741 218.268C103.093 218.796 106.859 222.535 108.525 222.616C110.191 222.697 109.744 221.559 109.087 220.442C108.43 219.324 106.425 215.985 106.425 214.407Z" fill="#263238" stroke="#263238" stroke-linecap="round" stroke-linejoin="round"/>
<path d="M35.9723 226.382C53.1119 226.382 67.0062 223.398 67.0062 219.717C67.0062 216.036 53.1119 213.052 35.9723 213.052C18.8328 213.052 4.93842 216.036 4.93842 219.717C4.93842 223.398 18.8328 226.382 35.9723 226.382Z" fill="#2563EB"/>
<g opacity="0.7">
<path d="M35.9723 226.382C53.1119 226.382 67.0062 223.398 67.0062 219.717C67.0062 216.036 53.1119 213.052 35.9723 213.052C18.8328 213.052 4.93842 216.036 4.93842 219.717C4.93842 223.398 18.8328 226.382 35.9723 226.382Z" fill="#F9C784" fill-opacity="0.9"/>
</g>
<path d="M31.5021 133.09C31.5021 133.09 26.8762 166.278 24.8443 172.374C22.8124 178.47 20.1032 198.111 18.9721 204.207C18.3284 207.565 17.8761 210.957 17.6175 214.366L20.557 215.274C20.557 215.274 34.3265 180.732 37.9365 173.505C40.2526 168.684 41.9961 163.608 43.1314 158.381C43.1314 158.381 45.8406 176.668 45.8406 182.31C45.8406 187.952 47.649 205.562 48.096 208.501C48.543 211.441 49.4506 215.044 49.4506 215.044L52.1598 214.597C52.1598 214.597 56.4539 189.76 57.1312 177.115C57.8085 164.47 55.7766 146.636 54.422 140.771C53.7866 137.773 52.917 134.829 51.8211 131.966C51.8211 131.966 37.9365 135.122 31.5021 133.09Z" fill="#263238" stroke="#263238" stroke-linecap="round" stroke-linejoin="round"/>
<path d="M44.1202 158.428L49.8502 144.72" stroke="#F9C784" stroke-opacity="0.9" stroke-width="0.5" stroke-linecap="round" stroke-linejoin="round"/>
<path d="M45.143 156.383L49.4439 151.066" stroke="#F9C784" stroke-opacity="0.9" stroke-width="0.5" stroke-linecap="round" stroke-linejoin="round"/>
<path d="M33.6492 94.7146C33.6492 94.7146 31.3938 95.2768 19.541 101.596C7.68829 107.915 -2.21384 115.691 1.17266 119.754C4.55916 123.818 27.4248 133.558 27.4248 133.558L29.1316 131.059C29.1316 131.059 11.3322 119.416 11.3322 117.16C11.3322 114.905 26.314 110.293 26.314 110.293L31.5022 133.09C34.724 134.531 38.2632 135.114 41.7768 134.784C45.2919 134.598 48.7222 133.635 51.8212 131.966L53.1758 108.484C53.1758 108.484 67.2907 106.229 71.2394 98.2095C75.188 90.1902 69.7696 71.1175 69.7696 71.1175L67.3991 71.3477C67.3991 71.3477 67.6294 89.8584 65.7058 93.36C63.7823 96.8616 48.4347 94.376 42.6776 93.6987C36.9206 93.0214 33.6492 94.7146 33.6492 94.7146Z" fill="#2563EB" stroke="#263238" stroke-linecap="round" stroke-linejoin="round"/>
<path d="M34.7058 108.708L26.3141 110.292L33.0735 112.189" stroke="#263238" stroke-width="0.5" stroke-linecap="round" stroke-linejoin="round"/>
<path d="M53.3315 102.978L53.1758 108.484L56.6029 100.526" stroke="#263238" stroke-width="0.5" stroke-linecap="round" stroke-linejoin="round"/>
<path d="M34.2113 90.0818C34.2113 90.0818 32.2946 90.4204 31.8408 92.1137C31.422 93.9007 31.4616 95.7645 31.9559 97.5321C32.4097 98.7783 34.103 101.935 34.103 101.935C34.103 101.935 38.3632 97.7217 39.0066 97.8708C42.1561 98.5887 43.917 98.8935 45.5561 99.3066C45.5561 99.3066 44.7095 92.7978 42.9079 90.9962C41.1062 89.1945 35.3424 89.8922 34.2113 90.0818Z" fill="#F9C784" fill-opacity="0.9" stroke="#263238" stroke-miterlimit="10" stroke-linecap="round"/>
<path d="M32.6333 86.2483C32.6333 86.2483 33.8727 90.6508 33.8727 92.344C33.8727 94.0373 39.0676 100.58 39.0676 100.58L41.2146 91.7751L40.3071 86.018C40.3071 86.018 35.6811 88.7272 32.6333 86.2483Z" fill="#F9C784" fill-opacity="0.9" stroke="#263238" stroke-miterlimit="10" stroke-linecap="round"/>
<path d="M41.892 73.041C41.892 73.041 42.2306 79.0215 43.2466 81.5072C44.2625 83.9929 43.4701 87.9416 40.9844 89.4045C38.4987 90.8675 34.7803 89.2962 32.6333 87.8264C30.4862 86.3567 29.4703 83.3088 28.346 79.9223C27.2216 76.5358 27.0997 71.6864 30.7165 70.1015C34.3333 68.5166 41.892 73.041 41.892 73.041Z" fill="#F9C784" fill-opacity="0.9" stroke="#263238" stroke-miterlimit="10" stroke-linecap="round"/>
<path d="M29.7005 82.8618C29.7005 82.8618 32.0711 82.0694 32.0711 80.9383C32.0711 79.8072 31.0552 79.1366 30.94 77.4434C30.8249 75.7501 33.1954 74.8426 33.1954 73.8266C33.2032 73.2544 33.1279 72.684 32.9719 72.1334C32.9719 72.1334 38.2752 74.0569 41.4382 74.0569C44.6012 74.0569 45.2785 71.4561 44.3709 70.7788C43.4633 70.1015 46.2944 71.2326 45.1633 68.862C44.0322 66.4915 38.5055 64.6831 33.0871 66.2679C27.6686 67.8528 26.9913 70.2166 26.9913 70.2166C26.9913 70.2166 22.3586 72.2485 22.6973 75.5199C23.0359 78.7912 28.2308 82.7467 28.6846 83.1192C29.1384 83.4917 29.7005 82.8618 29.7005 82.8618Z" fill="#263238" stroke="#263238" stroke-miterlimit="10" stroke-linecap="round"/>
<path d="M31.2787 84.1013C31.2787 84.1013 29.8089 81.1686 28.4543 81.7307C27.0997 82.2929 28.0073 83.8778 29.4703 85.1172C30.9332 86.3567 31.8408 85.9097 31.8408 85.9097" fill="#F9C784" fill-opacity="0.9"/>
<path d="M31.2787 84.1013C31.2787 84.1013 29.8089 81.1686 28.4543 81.7307C27.0997 82.2929 28.0073 83.8778 29.4703 85.1172C30.9332 86.3567 31.8408 85.9097 31.8408 85.9097" stroke="#263238" stroke-miterlimit="10" stroke-linecap="round"/>
<path d="M67.2771 71.3477C67.2771 71.3477 66.5253 66.7624 66.8098 65.9293C67.0943 65.0962 68.9568 63.2201 69.7086 63.9651C70.4604 64.7102 71.1987 66.9588 70.6433 68.1712C70.2495 69.1222 69.9566 70.112 69.7696 71.1242L67.2771 71.3477Z" fill="#F9C784" fill-opacity="0.9" stroke="#263238" stroke-linecap="round" stroke-linejoin="round"/>
<path d="M67.0875 69.3836C67.0875 69.3836 65.9632 65.9971 65.9632 64.9879C66.0136 63.5397 66.2018 62.0996 66.5253 60.687C66.8098 59.6575 67.6496 60.687 67.6496 61.6217C67.6278 62.4034 67.5645 63.1834 67.46 63.9584C67.46 63.9584 68.5843 65.4552 68.4895 66.6676L68.3947 67.8867" fill="#F9C784" fill-opacity="0.9"/>
<path d="M67.0875 69.3836C67.0875 69.3836 65.9632 65.9971 65.9632 64.9879C66.0136 63.5397 66.2018 62.0996 66.5253 60.687C66.8098 59.6575 67.6496 60.687 67.6496 61.6217C67.6278 62.4034 67.5645 63.1834 67.46 63.9584C67.46 63.9584 68.5843 65.4552 68.4895 66.6676L68.3947 67.8867" stroke="#263238" stroke-linecap="round" stroke-linejoin="round"/>
<path d="M70.833 67.4194L69.9728 62.746C70.5689 62.5487 71.0735 62.1424 71.3934 61.6021C71.7134 61.0619 71.8271 60.4241 71.7135 59.8065L71.0768 56.3117L65.9226 57.2531L66.566 60.748C66.6805 61.3724 67.0188 61.9337 67.5176 62.3265C68.0164 62.7193 68.6413 62.9166 69.2752 62.8815L70.1286 67.5548L67.5549 68.029L67.7039 68.8553L73.5896 67.7784L73.4406 66.9521L70.833 67.4194Z" fill="#F9C784" fill-opacity="0.9" stroke="#263238" stroke-linecap="round" stroke-linejoin="round"/>
<path d="M72.1672 59.942C72.0797 59.7419 71.9522 59.5619 71.7927 59.4128C71.6331 59.2638 71.4448 59.1488 71.2393 59.075C70.9007 58.9599 70.562 59.0005 70.5214 59.6169C70.4537 60.8495 71.28 66.3898 71.4629 65.1775C71.6322 64.1006 72.7565 61.2288 72.1672 59.942Z" fill="#F9C784" fill-opacity="0.9" stroke="#263238" stroke-linecap="round" stroke-linejoin="round"/>
<path d="M71.5103 60.958C71.4231 60.7588 71.2966 60.5794 71.1383 60.4304C70.98 60.2814 70.7932 60.166 70.5891 60.091C70.2505 59.9759 69.9118 60.0165 69.8712 60.6329C69.8035 61.8656 71.28 65.7533 71.4629 64.5409C71.6322 63.4776 72.1063 62.2449 71.5103 60.958Z" fill="#F9C784" fill-opacity="0.9" stroke="#263238" stroke-linecap="round" stroke-linejoin="round"/>
<path d="M71.3681 62.1907C71.2472 61.9371 71.0539 61.725 70.8127 61.5811C70.4131 61.3643 69.8306 61.1815 69.7832 61.9875C69.7222 63.2201 71.1378 66.6202 71.3139 65.374C71.49 64.1277 72.0318 63.5317 71.3681 62.1907Z" fill="#F9C784" fill-opacity="0.9" stroke="#263238" stroke-linecap="round" stroke-linejoin="round"/>
<path d="M70.8397 63.3556C70.7516 63.1571 70.6247 62.9782 70.4666 62.8293C70.3084 62.6804 70.1221 62.5646 69.9186 62.4887C69.58 62.3735 69.2413 62.4142 69.2007 63.0305C69.1329 64.2632 70.9142 68.0155 71.1039 66.8031C71.3887 65.6554 71.2961 64.4465 70.8397 63.3556Z" fill="#F9C784" fill-opacity="0.9" stroke="#263238" stroke-linecap="round" stroke-linejoin="round"/>
<path d="M17.6175 214.366C17.6175 214.366 13.5537 219.561 13.3302 222.494C13.1067 225.427 19.4259 220.916 20.557 215.274L17.6175 214.366Z" fill="#F9C784" fill-opacity="0.9" stroke="#263238" stroke-linecap="round" stroke-linejoin="round"/>
<path d="M52.1598 214.597C52.1598 214.597 61.195 219.561 59.1631 220.462C57.1312 221.363 52.1598 218.207 49.4506 215.044L52.1598 214.597Z" fill="#F9C784" fill-opacity="0.9" stroke="#263238" stroke-linecap="round" stroke-linejoin="round"/>
<path d="M29.1316 131.059C29.1316 131.059 35.0918 131.871 35.0918 133.09C35.1046 133.428 35.0257 133.764 34.8636 134.061C34.7014 134.357 34.462 134.605 34.1707 134.777C34.1707 134.777 33.7101 135.847 31.4141 136.131C29.118 136.416 27.4248 133.524 27.4248 133.524L29.1316 131.059Z" fill="#F9C784" fill-opacity="0.9" stroke="#263238" stroke-linecap="round" stroke-linejoin="round"/>
</svg>
