<svg width="277" height="270" viewBox="0 0 277 270" fill="none" xmlns="http://www.w3.org/2000/svg">
<path d="M19.2788 202.693C20.7435 203.329 24.3157 203.272 24.3157 203.272C24.3157 203.272 23.5515 200.956 23.482 200.794C22.6946 199.149 20.2167 196.446 18.2019 196.741C17.8709 196.796 17.5551 196.919 17.2746 197.103C16.9942 197.288 16.7553 197.528 16.5732 197.81C16.3912 198.092 16.27 198.409 16.2175 198.74C16.1649 199.071 16.1822 199.41 16.2682 199.734C16.604 201.112 18.0398 202.148 19.2788 202.693Z" fill="#16A34A"/>
<path d="M20.5119 213.05C22.0288 213.27 25.2189 212.344 25.4678 212.269C25.9937 214.092 26.6397 215.88 27.4015 217.618C27.8415 218.637 28.3163 219.644 28.8026 220.652C28.5131 220.223 28.2236 219.847 28.2236 219.795C27.0657 218.423 23.9278 216.466 22.0578 217.259C21.75 217.4 21.4753 217.603 21.2515 217.857C21.0277 218.11 20.8598 218.408 20.7587 218.731C20.6577 219.054 20.6257 219.394 20.665 219.73C20.7043 220.066 20.8139 220.39 20.9867 220.681C21.6814 221.943 23.3373 222.562 24.6804 222.759C26.0236 222.956 28.7794 222.227 29.4973 222.018C29.6884 222.406 29.8737 222.788 30.0763 223.176C30.9968 225.017 31.9232 226.847 32.78 228.67C33.0869 229.313 33.359 229.956 33.6369 230.598C33.3763 230.222 33.1563 229.904 33.1158 229.857C31.9579 228.485 28.82 226.528 26.9499 227.327C26.6422 227.468 26.3675 227.671 26.1437 227.925C25.9198 228.178 25.7519 228.476 25.6509 228.799C25.5498 229.122 25.5179 229.462 25.5572 229.798C25.5965 230.134 25.7061 230.458 25.8789 230.749C26.5736 232.005 28.2294 232.63 29.5726 232.821C30.9158 233.013 33.4053 232.358 34.2622 232.121C34.5227 232.787 34.789 233.453 35.0148 234.113C35.1595 234.564 35.3274 234.993 35.4432 235.456L35.8253 236.811C36.0338 237.679 36.2538 238.576 36.4043 239.427C36.5374 240.006 36.6532 240.585 36.769 241.164C36.4738 240.522 35.8716 239.277 35.8138 239.178C34.8469 237.638 32.0737 235.236 30.0995 235.734C29.7741 235.827 29.472 235.987 29.2126 236.204C28.9533 236.422 28.7425 236.691 28.5941 236.995C28.4456 237.299 28.3627 237.631 28.3507 237.97C28.3388 238.308 28.398 238.645 28.5247 238.958C29.0226 240.307 30.5626 241.17 31.8595 241.57C33.2895 242.004 36.4564 241.604 36.8501 241.57C37.0411 242.519 37.2148 243.44 37.3654 244.308C37.7069 246.236 37.9443 247.961 38.1527 249.42H39.4901C39.2585 247.909 38.9517 246.109 38.5522 244.088C38.3612 243.127 38.1412 242.102 37.9038 241.054C38.8612 240.654 39.7931 240.196 40.6944 239.682C41.7365 240.811 44.4055 242.131 44.747 242.299C44.3881 243.196 44.0233 244.036 43.6702 244.87C42.9291 246.566 42.2286 248.077 41.6091 249.356H43.0565C43.5833 248.199 44.1681 246.832 44.7934 245.339C45.1639 244.435 45.546 243.457 45.9513 242.444C46.3334 242.525 49.4655 243.156 50.9245 242.832C52.2445 242.531 53.8193 241.778 54.4446 240.469C54.5944 240.167 54.6786 239.836 54.6919 239.498C54.7051 239.161 54.647 238.824 54.5213 238.51C54.3957 238.197 54.2053 237.913 53.9626 237.678C53.7199 237.443 53.4304 237.262 53.113 237.146C51.185 236.498 48.2381 238.686 47.1613 240.151C47.0976 240.232 46.5129 241.245 46.1539 241.888C46.3044 241.477 46.4608 241.077 46.6113 240.655C46.9181 239.815 47.1902 238.97 47.5087 238.055C47.6418 237.615 47.775 237.164 47.9139 236.712C48.0529 236.26 48.1513 235.774 48.2729 235.299C48.5392 234.199 48.7476 233.07 48.9387 231.93C49.674 232.196 52.3024 233.088 53.6572 233.013C55.0119 232.937 56.7141 232.434 57.4956 231.218C57.6866 230.941 57.8176 230.628 57.8803 230.298C57.943 229.968 57.936 229.629 57.8596 229.301C57.7833 228.974 57.6394 228.667 57.4371 228.399C57.2348 228.13 56.9787 227.907 56.6851 227.744C54.8788 226.812 51.6366 228.531 50.3455 229.811C50.2645 229.892 49.4482 230.917 49.0082 231.484C49.1124 230.801 49.2282 230.112 49.315 229.417C49.564 227.397 49.755 225.365 49.9519 223.303C50.0155 222.678 50.0792 222.053 50.1487 221.428C50.4092 221.526 53.5066 222.678 55.0293 222.586C56.3841 222.487 58.0804 222.007 58.862 220.791C59.0541 220.515 59.1862 220.202 59.2498 219.872C59.3134 219.542 59.307 219.203 59.2312 218.875C59.1554 218.548 59.0117 218.24 58.8095 217.972C58.6073 217.703 58.351 217.48 58.0572 217.317C56.2451 216.379 53.003 218.099 51.6887 219.384C51.5903 219.482 50.4092 220.953 50.1313 221.347C50.2761 219.969 50.4324 218.602 50.6408 217.259C50.9097 215.445 51.2965 213.65 51.7987 211.886C51.9203 211.933 55.1451 213.149 56.7083 213.044C58.063 212.952 59.7594 212.465 60.541 211.25C60.733 210.974 60.8651 210.661 60.9287 210.331C60.9923 210.001 60.986 209.661 60.9102 209.334C60.8343 209.007 60.6907 208.699 60.4884 208.43C60.2862 208.162 60.03 207.939 59.7362 207.776C57.9241 206.844 54.6819 208.563 53.3677 209.843C53.2635 209.941 51.9956 211.527 51.7871 211.834C51.7871 211.73 51.8392 211.626 51.8682 211.522C52.4273 209.768 53.1403 208.067 53.9988 206.438C54.4619 205.53 54.954 204.702 55.4519 203.885C56.0309 204.175 58.6825 205.46 60.0836 205.518C61.4847 205.576 63.181 205.263 64.0957 204.157C64.3192 203.903 64.4866 203.605 64.5871 203.282C64.6876 202.959 64.7189 202.619 64.679 202.283C64.6392 201.947 64.529 201.623 64.3557 201.333C64.1823 201.042 63.9498 200.791 63.6731 200.597C61.9768 199.468 58.5667 200.823 57.1425 201.957C57.0672 202.015 56.3493 202.733 55.8398 203.26C56.0656 202.895 56.2972 202.519 56.523 202.177C57.3741 200.898 58.2599 199.775 59.0067 198.79C59.4467 198.212 59.8578 197.737 60.2457 197.274C60.9578 197.274 63.841 197.175 65.0973 196.585C66.3537 195.994 67.7316 194.935 68.0269 193.528C68.1079 193.2 68.119 192.858 68.0594 192.525C67.9997 192.192 67.8706 191.876 67.6806 191.596C67.4905 191.317 67.2438 191.08 66.9563 190.902C66.6688 190.724 66.3471 190.609 66.0121 190.564C63.9915 190.344 61.5889 193.117 60.8478 194.778C60.7841 194.923 60.0431 197.279 60.0778 197.279H60.211C59.8288 197.714 59.4236 198.183 58.9894 198.704C58.1962 199.676 57.3104 200.782 56.4304 202.05C55.4642 203.409 54.5769 204.822 53.773 206.282C52.8681 207.912 52.1105 209.619 51.5092 211.383V211.446C51.5092 210.867 51.5092 209.183 51.4745 209.055C51.2429 207.255 49.7376 203.908 47.7287 203.538C47.3946 203.486 47.0533 203.504 46.7269 203.592C46.4006 203.68 46.0964 203.836 45.8343 204.05C45.5721 204.263 45.3579 204.53 45.2055 204.832C45.0531 205.133 44.9659 205.464 44.9497 205.802C44.8339 207.237 45.876 208.667 46.8834 209.571C48.0413 210.595 51.1966 211.58 51.4456 211.661C50.8804 213.471 50.4337 215.316 50.1082 217.184C49.9171 218.272 49.755 219.378 49.6045 220.484C49.6045 219.969 49.6045 219.506 49.6045 219.442C49.3671 217.641 47.8676 214.295 45.8586 213.924C45.5243 213.873 45.1829 213.892 44.8565 213.981C44.5301 214.07 44.226 214.227 43.964 214.441C43.702 214.655 43.4878 214.921 43.3355 215.223C43.1832 215.525 43.096 215.856 43.0797 216.194C42.9639 217.624 44.0002 219.06 45.0134 219.963C46.0265 220.866 48.6318 221.734 49.3671 221.972C49.315 222.4 49.2571 222.823 49.205 223.251C48.9618 225.289 48.7303 227.333 48.435 229.325C48.3366 230.025 48.2092 230.714 48.0818 231.403C48.0818 230.946 48.0818 230.558 48.0818 230.5C47.8502 228.699 46.345 225.353 44.336 224.982C44.0023 224.93 43.6612 224.948 43.3352 225.037C43.0091 225.125 42.7053 225.281 42.4436 225.495C42.1819 225.708 41.9682 225.975 41.8164 226.276C41.6647 226.578 41.5782 226.909 41.5628 227.246C41.4412 228.682 42.4833 230.141 43.4907 231.015C44.4981 231.889 46.9644 232.752 47.7924 233.018C47.6418 233.719 47.4971 234.419 47.3176 235.097C47.1902 235.548 47.0976 236 46.9413 236.452C46.785 236.903 46.6518 237.349 46.5071 237.789C46.2002 238.628 45.8934 239.497 45.5749 240.313C45.3549 240.892 45.1349 241.413 44.9207 241.952C45.0307 241.257 45.216 239.885 45.2218 239.769C45.1958 238.17 44.7635 236.604 43.9655 235.218C43.9712 235.04 43.9596 234.862 43.9307 234.686C43.8885 234.351 43.7764 234.028 43.6015 233.739C43.4265 233.45 43.1928 233.201 42.9155 233.009C42.6381 232.816 42.3233 232.684 41.9915 232.621C41.6597 232.557 41.3184 232.565 40.9896 232.642C39.0212 233.169 37.7706 236.619 37.678 238.432C37.678 238.542 37.7475 239.711 37.7996 240.446C37.7011 240.018 37.6085 239.601 37.5043 239.161C37.2959 238.293 37.0643 237.424 36.8211 236.504C36.688 236.058 36.549 235.612 36.4159 235.155C36.2827 234.697 36.0974 234.246 35.9411 233.783C35.5474 232.717 35.1016 231.658 34.6327 230.604C35.3911 230.419 38.1064 229.736 39.1659 228.902C40.2254 228.068 41.3833 226.725 41.3775 225.289C41.3858 224.952 41.3232 224.616 41.1937 224.304C41.0642 223.992 40.8707 223.711 40.6257 223.479C40.3807 223.246 40.0897 223.068 39.7714 222.955C39.4531 222.842 39.1147 222.797 38.778 222.823C36.7517 223.043 34.9974 226.268 34.6269 228.034C34.6269 228.144 34.4879 229.452 34.4358 230.17C34.1464 229.539 33.8569 228.902 33.5442 228.271C32.6411 226.453 31.6684 224.635 30.7074 222.823C30.4121 222.244 30.1284 221.711 29.8389 221.15C30.111 221.092 33.3127 220.345 34.5401 219.413C35.6169 218.585 36.7575 217.236 36.7459 215.8C36.7551 215.462 36.6931 215.126 36.5639 214.814C36.4347 214.502 36.2412 214.22 35.996 213.987C35.7508 213.755 35.4594 213.576 35.1407 213.464C34.8221 213.351 34.4833 213.307 34.1464 213.334C32.1258 213.554 30.3658 216.779 30.001 218.544C29.9721 218.678 29.8042 220.559 29.7868 221.04C29.1442 219.812 28.5247 218.585 27.9573 217.346C27.1834 215.682 26.52 213.968 25.9715 212.216C26.0989 212.188 29.4452 211.423 30.7016 210.48C31.7784 209.652 32.919 208.303 32.9132 206.867C32.9225 206.529 32.8603 206.192 32.7308 205.879C32.6012 205.566 32.4072 205.285 32.1614 205.052C31.9156 204.819 31.6234 204.641 31.3041 204.529C30.9847 204.416 30.6453 204.373 30.3079 204.401C28.2873 204.621 26.5331 207.84 26.1626 209.611C26.1626 209.75 25.9541 211.771 25.9483 212.141C25.9136 212.043 25.8731 211.939 25.8441 211.834C25.3393 210.064 24.9944 208.253 24.8136 206.421C24.6978 205.408 24.6457 204.435 24.6167 203.492C25.2594 203.411 28.1831 203.023 29.3931 202.287C30.6032 201.552 31.8421 200.371 31.9869 198.941C32.0334 198.606 32.0087 198.265 31.9145 197.94C31.8204 197.615 31.6588 197.313 31.4403 197.055C31.2218 196.796 30.9513 196.587 30.6465 196.44C30.3416 196.293 30.0093 196.212 29.671 196.203C27.6389 196.203 25.5373 199.207 24.9815 200.938C24.9468 201.031 24.7441 202.021 24.6052 202.745C24.6052 202.316 24.6052 201.876 24.6052 201.465C24.6052 199.925 24.7036 198.518 24.802 197.274C24.8599 196.561 24.9294 195.925 24.9989 195.323C25.5778 194.917 27.94 193.261 28.6694 192.069C29.3989 190.876 29.9489 189.238 29.4221 187.906C29.3073 187.583 29.1246 187.287 28.8864 187.04C28.6482 186.793 28.3599 186.6 28.0408 186.473C27.7217 186.346 27.3792 186.289 27.0363 186.306C26.6934 186.322 26.358 186.412 26.0526 186.569C24.2404 187.507 23.7367 191.142 24.0667 192.937C24.0667 193.094 24.7731 195.467 24.8078 195.45L24.8425 195.421C24.7615 196 24.6862 196.614 24.611 197.285C24.4894 198.536 24.3562 199.948 24.3215 201.488C24.2633 203.153 24.3039 204.819 24.4431 206.479C24.5859 208.338 24.894 210.181 25.3636 211.985C25.3636 211.985 25.3636 212.031 25.3636 212.049C25.0452 211.551 24.1015 210.173 24.0146 210.074C22.8567 208.702 19.7246 206.745 17.8488 207.538C17.5415 207.679 17.2674 207.883 17.0441 208.137C16.8209 208.391 16.6536 208.689 16.5531 209.012C16.4527 209.335 16.4212 209.675 16.4609 210.01C16.5006 210.346 16.6105 210.67 16.7835 210.96C17.513 212.216 19.1688 212.842 20.5119 213.05Z" fill="#16A34A"/>
<path d="M55.4114 203.474C55.4403 203.474 56.0598 201.101 56.083 200.95C56.3319 199.149 55.7588 195.525 53.9235 194.639C53.6159 194.5 53.2823 194.427 52.9446 194.425C52.6068 194.424 52.2726 194.494 51.9637 194.63C51.6549 194.767 51.3784 194.967 51.1524 195.218C50.9264 195.469 50.756 195.765 50.6524 196.087C50.1603 197.436 50.7797 199.097 51.5208 200.232C52.3835 201.569 55.4056 203.474 55.4114 203.474Z" fill="#16A34A"/>
<path d="M63.8468 219.749C64.7731 220.154 67.0426 220.102 67.0426 220.102C67.0426 220.102 66.5563 218.614 66.5158 218.527C66.0179 217.485 64.4431 215.765 63.1636 215.939C62.9532 215.976 62.7527 216.056 62.5751 216.175C62.3975 216.294 62.2466 216.448 62.1321 216.629C62.0177 216.809 61.9422 217.011 61.9104 217.223C61.8787 217.434 61.8914 217.649 61.9478 217.855C62.1505 218.741 63.0594 219.419 63.8468 219.749Z" fill="#16A34A"/>
<path d="M64.6284 226.314C65.5894 226.453 67.6158 225.868 67.7779 225.822C68.1098 226.979 68.5198 228.113 69.0053 229.215C69.2832 229.857 69.5842 230.5 69.8911 231.137C69.7058 230.865 69.5379 230.627 69.5148 230.598C68.7563 229.724 66.7879 228.479 65.601 228.989C65.4053 229.077 65.2306 229.206 65.0883 229.367C64.946 229.528 64.8394 229.717 64.7754 229.922C64.7115 230.127 64.6916 230.344 64.7171 230.557C64.7427 230.77 64.8131 230.976 64.9236 231.16C65.3579 231.959 66.4116 232.353 67.2395 232.474C68.0674 232.596 69.839 232.138 70.2964 232.005L70.6611 232.74C71.2401 233.898 71.819 235.056 72.398 236.214C72.589 236.619 72.7627 237.031 72.9364 237.436C72.7743 237.198 72.6353 236.996 72.6064 236.967C71.8538 236.098 69.8853 234.854 68.6926 235.357C68.4976 235.447 68.3235 235.576 68.1818 235.737C68.04 235.898 67.9337 236.087 67.8698 236.292C67.8059 236.497 67.7859 236.713 67.8109 236.926C67.836 237.139 67.9056 237.344 68.0153 237.528C68.4553 238.327 69.509 238.727 70.3311 238.848C71.3402 238.855 72.3441 238.705 73.3069 238.403C73.4748 238.825 73.6427 239.248 73.7817 239.665C73.8743 239.954 73.9843 240.244 74.0596 240.522C74.1348 240.8 74.2159 241.101 74.2969 241.378C74.4301 241.928 74.5691 242.502 74.6848 243.04C74.7717 243.416 74.8412 243.775 74.9164 244.14C74.7312 243.729 74.3375 242.942 74.3085 242.878C73.6948 241.9 71.9348 240.377 70.6843 240.695C70.4776 240.754 70.2856 240.855 70.1207 240.992C69.9558 241.13 69.8217 241.301 69.7272 241.494C69.6327 241.686 69.5799 241.897 69.5722 242.112C69.5646 242.326 69.6022 242.54 69.6827 242.739C70.0011 243.596 70.9795 244.146 71.8016 244.395C72.6238 244.644 74.6964 244.395 74.9685 244.395C75.0901 244.974 75.2001 245.582 75.2927 246.132C75.5128 247.353 75.6749 248.448 75.7964 249.374H76.6417C76.497 248.413 76.3001 247.272 76.0628 245.987C75.947 245.408 75.8022 244.731 75.6517 244.065C76.2589 243.826 76.8506 243.549 77.4233 243.237C78.2054 243.906 79.0763 244.463 80.0112 244.893C79.7797 245.472 79.5539 246.01 79.3281 246.525C78.8591 247.602 78.4133 248.558 78.0196 249.374H78.9344C79.276 248.621 79.6465 247.77 80.0344 246.821C80.266 246.242 80.5091 245.628 80.7523 244.991C80.9955 245.043 82.9813 245.449 83.9076 245.24C84.7471 245.049 85.7661 244.574 86.1424 243.741C86.2376 243.548 86.2912 243.338 86.2996 243.123C86.3081 242.909 86.2712 242.695 86.1915 242.495C86.1117 242.296 85.9909 242.116 85.8368 241.966C85.6827 241.817 85.4988 241.701 85.2971 241.627C84.0755 241.216 82.2055 242.606 81.5223 243.538C81.4818 243.59 81.1113 244.233 80.8797 244.644L81.1749 243.862C81.3718 243.33 81.5455 242.791 81.7539 242.212C81.8407 241.928 81.9218 241.633 82.0086 241.361C82.0955 241.089 82.165 240.782 82.2402 240.464C82.4081 239.763 82.5413 239.045 82.6629 238.322C83.6182 238.707 84.6283 238.94 85.6561 239.011C86.5187 238.953 87.5956 238.634 88.0935 237.853C88.2167 237.677 88.3016 237.478 88.3425 237.267C88.3833 237.057 88.3793 236.84 88.3307 236.632C88.282 236.423 88.1899 236.227 88.0602 236.056C87.9305 235.885 87.7663 235.744 87.5782 235.641C86.4203 235.062 84.3708 236.139 83.5545 236.949C83.5023 237.002 82.9755 237.65 82.7034 238.015C82.7729 237.581 82.8423 237.141 82.9002 236.701C83.0565 235.421 83.1781 234.118 83.3055 232.821L83.4271 231.629C83.595 231.693 85.5576 232.422 86.5245 232.358C87.3871 232.295 88.464 231.982 88.9619 231.2C89.0853 231.025 89.1702 230.825 89.2111 230.614C89.252 230.403 89.2481 230.186 89.1994 229.977C89.1508 229.767 89.0587 229.571 88.9289 229.4C88.7992 229.228 88.6349 229.086 88.4466 228.983C87.2887 228.404 85.2392 229.481 84.4229 230.297C84.365 230.355 83.6123 231.293 83.4329 231.542C83.5255 230.668 83.6297 229.805 83.7629 228.948C83.9343 227.796 84.1818 226.657 84.5039 225.538C84.585 225.567 86.6287 226.337 87.6187 226.268C88.4814 226.21 89.5582 225.891 90.0561 225.11C90.1794 224.934 90.2642 224.735 90.3051 224.525C90.346 224.314 90.342 224.097 90.2933 223.889C90.2447 223.68 90.1525 223.484 90.0229 223.313C89.8932 223.142 89.7289 223.001 89.5409 222.898C88.3829 222.319 86.3392 223.396 85.5171 224.207C85.4534 224.27 84.6487 225.278 84.5155 225.475C84.5155 225.411 84.5503 225.341 84.5676 225.278C84.9208 224.162 85.3742 223.081 85.9224 222.047C86.2119 221.468 86.5013 220.941 86.8429 220.426C87.2077 220.611 88.8924 221.428 89.7956 221.462C90.6988 221.497 91.7583 221.306 92.3372 220.6C92.4788 220.439 92.5849 220.25 92.6487 220.045C92.7125 219.84 92.7324 219.624 92.7073 219.411C92.6822 219.198 92.6126 218.993 92.5029 218.809C92.3933 218.625 92.2461 218.465 92.0709 218.342C90.994 217.624 88.8287 218.487 87.9256 219.204C87.8792 219.245 87.4219 219.697 87.0977 220.032C87.2424 219.801 87.3929 219.563 87.5377 219.343C88.0761 218.533 88.6203 217.821 89.1066 217.195C89.3903 216.842 89.6509 216.524 89.894 216.234C90.3514 216.234 92.1751 216.171 92.9741 215.794C93.773 215.418 94.6472 214.747 94.8383 213.855C94.8898 213.647 94.8969 213.43 94.859 213.218C94.8211 213.007 94.7392 212.806 94.6185 212.629C94.4977 212.451 94.341 212.301 94.1584 212.188C93.9759 212.075 93.7715 212.002 93.5588 211.973C92.2735 211.834 90.7451 213.594 90.2761 214.648C90.2356 214.741 89.7666 216.234 89.7898 216.234H89.8188C89.5756 216.512 89.3151 216.813 89.043 217.143C88.5393 217.757 87.9777 218.458 87.4219 219.262C86.8066 220.123 86.244 221.02 85.7371 221.949C85.1613 222.982 84.6789 224.066 84.2955 225.185C84.2963 225.199 84.2963 225.212 84.2955 225.226C84.2955 224.849 84.2955 223.79 84.2955 223.709C84.1508 222.551 83.1897 220.443 81.9218 220.206C81.7116 220.178 81.4978 220.193 81.2939 220.252C81.09 220.31 80.9005 220.411 80.7373 220.546C80.574 220.681 80.4407 220.849 80.3456 221.039C80.2506 221.229 80.1958 221.436 80.1849 221.648C80.1155 222.557 80.7639 223.466 81.4123 224.039C82.0607 224.612 84.1508 225.312 84.3071 225.359C83.946 226.508 83.6617 227.68 83.456 228.867C83.3287 229.562 83.2302 230.263 83.1376 230.963C83.1376 230.639 83.1376 230.344 83.1376 230.303C82.9871 229.145 82.026 227.038 80.7581 226.829C80.5477 226.8 80.3336 226.815 80.1293 226.873C79.9251 226.931 79.7352 227.031 79.5718 227.167C79.4084 227.303 79.275 227.471 79.1802 227.661C79.0854 227.851 79.0313 228.059 79.0212 228.271C78.946 229.174 79.6002 230.089 80.2428 230.662C81.1083 231.235 82.0575 231.671 83.0566 231.953L82.9523 232.764C82.796 234.06 82.6513 235.357 82.466 236.619C82.3965 237.065 82.3155 237.505 82.2402 237.939C82.2402 237.65 82.2402 237.407 82.2402 237.361C82.0955 236.203 81.1344 234.095 79.8665 233.858C79.6563 233.83 79.4425 233.845 79.2386 233.904C79.0347 233.962 78.8452 234.062 78.682 234.198C78.5188 234.333 78.3854 234.501 78.2903 234.691C78.1953 234.88 78.1405 235.088 78.1296 235.299C78.0544 236.208 78.7086 237.117 79.357 237.691C80.1944 238.253 81.1144 238.68 82.0839 238.958C81.9913 239.404 81.8986 239.85 81.7828 240.278C81.7018 240.568 81.6439 240.857 81.5455 241.141L81.1113 241.998C80.9202 242.531 80.7234 243.086 80.5323 243.602C80.3934 243.961 80.2544 244.302 80.1155 244.644C80.1849 244.198 80.3065 243.33 80.3065 243.254C80.2938 242.237 80.0207 241.241 79.5133 240.36C79.522 240.246 79.522 240.132 79.5133 240.018C79.4866 239.805 79.4153 239.6 79.3041 239.416C79.1929 239.233 79.0442 239.074 78.8678 238.952C78.6914 238.83 78.4911 238.746 78.2802 238.706C78.0692 238.666 77.8522 238.671 77.6433 238.721C76.3986 239.057 75.6054 241.245 75.5475 242.397C75.5475 242.467 75.588 243.208 75.6227 243.677C75.5591 243.405 75.5012 243.138 75.4317 242.861C75.3043 242.282 75.1538 241.761 75.0033 241.17L74.7427 240.319C74.6617 240.03 74.5401 239.74 74.4417 239.445C74.1927 238.767 73.909 238.096 73.608 237.424C74.0943 237.308 75.8022 236.845 76.5028 236.347C77.2033 235.849 77.9096 234.964 77.9038 234.032C77.9103 233.817 77.8714 233.604 77.7895 233.405C77.7077 233.207 77.5849 233.028 77.4291 232.88C77.2733 232.733 77.088 232.62 76.8855 232.549C76.6829 232.478 76.4677 232.45 76.2538 232.468C74.9685 232.607 73.8511 234.651 73.6196 235.78C73.6196 235.849 73.5327 236.683 73.498 237.135C73.3127 236.735 73.1332 236.336 72.919 235.93C72.3401 234.773 71.7264 233.615 71.1127 232.457L70.5627 231.397C70.7364 231.357 72.7801 230.882 73.5443 230.291C74.3085 229.701 74.957 228.908 74.9512 227.976C74.9559 227.761 74.9156 227.548 74.8328 227.35C74.75 227.152 74.6266 226.974 74.4705 226.826C74.3145 226.679 74.1292 226.566 73.9268 226.495C73.7244 226.423 73.5093 226.395 73.2954 226.412C72.0159 226.551 70.8985 228.595 70.6669 229.724C70.6669 229.811 70.5395 231.004 70.5279 231.31C70.1227 230.529 69.729 229.747 69.37 228.995C68.8793 227.939 68.4577 226.852 68.1079 225.741C68.189 225.741 70.3253 225.237 71.1127 224.629C71.7959 224.108 72.5195 223.251 72.5138 222.313C72.5202 222.099 72.4813 221.885 72.3995 221.687C72.3176 221.489 72.1948 221.31 72.039 221.162C71.8832 221.015 71.6979 220.902 71.4954 220.831C71.2929 220.76 71.0776 220.732 70.8637 220.75C69.5784 220.889 68.4611 222.933 68.2295 224.062C68.2295 224.155 68.0963 225.434 68.0905 225.671C68.0905 225.608 68.0442 225.544 68.0269 225.475C67.7061 224.352 67.4871 223.203 67.3726 222.041C67.3032 221.399 67.2684 220.779 67.2511 220.177C67.6563 220.131 69.5148 219.882 70.2848 219.419C71.0548 218.956 71.8364 218.197 71.929 217.288C71.9575 217.076 71.941 216.859 71.8808 216.654C71.8205 216.448 71.7178 216.257 71.5792 216.093C71.4407 215.93 71.2694 215.797 71.0763 215.703C70.8833 215.61 70.6728 215.558 70.4585 215.551C69.1674 215.551 67.8358 217.462 67.4768 218.562C67.4768 218.62 67.3321 219.245 67.2395 219.72C67.2395 219.448 67.2395 219.141 67.2395 218.909C67.2395 217.931 67.3032 217.033 67.3668 216.246C67.4016 215.794 67.4479 215.389 67.4942 215.007C67.8647 214.752 69.3585 213.699 69.81 212.946C70.2616 212.193 70.6206 211.145 70.2906 210.3C70.2184 210.098 70.1045 209.913 69.9562 209.757C69.808 209.602 69.6287 209.479 69.4301 209.397C69.2314 209.315 69.0177 209.276 68.8029 209.282C68.5881 209.288 68.377 209.339 68.1832 209.432C67.0253 210.011 66.7358 212.326 66.9268 213.484C66.9268 213.583 67.3726 215.094 67.3958 215.076C67.3437 215.441 67.2916 215.829 67.2453 216.234C67.17 217.028 67.0889 217.925 67.0658 218.903C67.0259 219.96 67.0511 221.017 67.141 222.07C67.2308 223.243 67.4246 224.406 67.72 225.544C67.7234 225.557 67.7234 225.571 67.72 225.585C67.5174 225.266 66.921 224.392 66.8689 224.328C66.1105 223.454 64.1421 222.215 62.9552 222.719C62.7595 222.807 62.5848 222.936 62.4425 223.097C62.3002 223.258 62.1936 223.447 62.1296 223.652C62.0656 223.857 62.0458 224.074 62.0713 224.287C62.0969 224.5 62.1672 224.706 62.2778 224.89C62.7294 225.787 63.7773 226.187 64.6284 226.314Z" fill="#16A34A"/>
<path d="M86.7792 220.247C86.7792 220.247 87.1903 218.735 87.2077 218.637C87.364 217.479 86.9992 215.198 85.8355 214.636C85.6399 214.549 85.428 214.503 85.2137 214.503C84.9993 214.502 84.7872 214.547 84.5912 214.634C84.3952 214.72 84.2196 214.848 84.0759 215.007C83.9322 215.166 83.8236 215.353 83.7571 215.557C83.4444 216.414 83.8381 217.462 84.336 218.185C84.8571 219.037 86.7792 220.247 86.7792 220.247Z" fill="#16A34A"/>
<path d="M148.212 31.1191C147.396 30.2738 145.977 29.4922 143.517 29.4343C137.988 29.2953 139.464 33.2091 137.988 34.1528C136.512 35.0965 136.095 33.6143 134.613 34.558C133.13 35.5017 133.802 37.3891 132.592 37.6613C131.382 37.9334 129.755 36.4454 128.273 37.3891C126.791 38.3328 126.791 39.126 126.113 39.126C125.436 39.126 124.093 38.5876 123.282 39.126C122.472 39.6644 121.546 40.3418 121.546 40.3418H136.019" stroke="#263238" stroke-linecap="round" stroke-linejoin="round"/>
<path d="M149.706 33.5333L149.289 33.3422C149.225 32.8397 149.055 32.3564 148.791 31.9238" stroke="#263238" stroke-linecap="round" stroke-linejoin="round"/>
<path d="M137.837 40.3592H155.629C155.629 40.3592 156.034 39.1434 154.546 38.3328C153.058 37.5223 152.392 38.1997 151.848 37.5281C151.304 36.8565 152.919 35.467 150.412 33.9212" stroke="#263238" stroke-linecap="round" stroke-linejoin="round"/>
<path d="M78.477 68.0101C77.6607 67.1591 76.2422 66.3833 73.7817 66.3196C68.2526 66.1864 69.729 70.1002 68.2526 71.0439C66.7763 71.9876 66.3652 70.4996 64.8773 71.4491C63.3894 72.3986 64.0726 74.2802 62.8568 74.5465C61.641 74.8129 60.0257 73.3365 58.5378 74.2802C57.0498 75.2239 57.0556 76.0171 56.384 76.0171C55.7125 76.0171 54.3577 75.4729 53.5472 76.0171C52.7366 76.5613 51.8103 77.2271 51.8103 77.2271H66.2842" stroke="#263238" stroke-linecap="round" stroke-linejoin="round"/>
<path d="M79.9996 70.4244L79.5828 70.2333C79.5188 69.7289 79.3491 69.2436 79.0849 68.8091" stroke="#263238" stroke-linecap="round" stroke-linejoin="round"/>
<path d="M68.1368 77.2445H85.9224C85.9224 77.2445 86.3276 76.0344 84.8455 75.2239C83.3634 74.4134 82.686 75.0907 82.1476 74.4134C81.6091 73.736 83.2186 72.3581 80.706 70.8065" stroke="#263238" stroke-linecap="round" stroke-linejoin="round"/>
<path d="M224.883 40.3592H260.153C260.153 40.3592 261.358 36.7523 256.952 34.3496C252.546 31.9469 250.543 33.9501 248.939 31.9469C247.335 29.9438 253.345 24.7332 241.326 19.5283C241.326 19.5283 240.527 8.30818 224.102 7.9087C217.01 7.73501 213.802 9.80188 212.094 12.4303" stroke="#263238" stroke-linecap="round" stroke-linejoin="round"/>
<path d="M214.121 40.3592H219.991" stroke="#263238" stroke-linecap="round" stroke-linejoin="round"/>
<path d="M209.952 17.942C209.448 19.6789 208.91 21.1205 207.677 21.9079C203.271 24.71 202.067 20.3042 197.661 23.1063C193.255 25.9084 195.258 31.5417 191.634 32.3464C188.01 33.1512 183.222 28.7395 178.816 31.5417C174.41 34.3438 174.404 36.7523 172.401 36.7523C170.398 36.7523 166.391 35.1486 163.989 36.7523C161.586 38.356 158.778 40.3592 158.778 40.3592H203.85" stroke="#263238" stroke-linecap="round" stroke-linejoin="round"/>
<path d="M248.997 171.429L235.305 220.64L242.704 250.242" stroke="#263238" stroke-width="5" stroke-linecap="round" stroke-linejoin="round"/>
<path d="M235.305 220.64H197.562L190.904 250.242" stroke="#263238" stroke-width="5" stroke-linecap="round" stroke-linejoin="round"/>
<path d="M123.19 171.429L109.503 220.64L116.902 250.242" stroke="#263238" stroke-width="5" stroke-linecap="round" stroke-linejoin="round"/>
<path d="M109.503 220.64H71.7611L65.0973 250.242" stroke="#263238" stroke-width="5" stroke-linecap="round" stroke-linejoin="round"/>
<path d="M117.406 175.296H254.404L256.251 168.847H119.247L117.406 175.296Z" fill="white" stroke="#263238" stroke-linecap="round" stroke-linejoin="round"/>
<path d="M114.546 185.283H251.544L253.391 178.84H116.387L114.546 185.283Z" fill="white" stroke="#263238" stroke-linecap="round" stroke-linejoin="round"/>
<path d="M111.686 195.276H248.684L250.531 188.827H113.527L111.686 195.276Z" fill="white" stroke="#263238" stroke-linecap="round" stroke-linejoin="round"/>
<path d="M108.826 205.263H245.824L247.671 198.819H110.667L108.826 205.263Z" fill="white" stroke="#263238" stroke-linecap="round" stroke-linejoin="round"/>
<path d="M105.96 215.256H242.964L244.811 208.812H107.807L105.96 215.256Z" fill="white" stroke="#263238" stroke-linecap="round" stroke-linejoin="round"/>
<path d="M115.241 175.296H252.239L254.086 168.847H117.088L115.241 175.296Z" fill="white" stroke="#263238" stroke-linecap="round" stroke-linejoin="round"/>
<path d="M112.381 185.283H249.379L251.226 178.84H114.228L112.381 185.283Z" fill="white" stroke="#263238" stroke-linecap="round" stroke-linejoin="round"/>
<path d="M109.521 195.276H246.519L248.366 188.827H111.367L109.521 195.276Z" fill="white" stroke="#263238" stroke-linecap="round" stroke-linejoin="round"/>
<path d="M106.661 205.263H243.659L245.506 198.819H108.507L106.661 205.263Z" fill="white" stroke="#263238" stroke-linecap="round" stroke-linejoin="round"/>
<path d="M103.801 215.256H240.799L242.646 208.812H105.647L103.801 215.256Z" fill="white" stroke="#263238" stroke-linecap="round" stroke-linejoin="round"/>
<path d="M240.886 218.423H68.7969V222.122H240.886V218.423Z" fill="white" stroke="#263238" stroke-linecap="round" stroke-linejoin="round"/>
<path d="M240.891 218.423H197.273V222.122H240.891V218.423Z" fill="white" stroke="#263238" stroke-linecap="round" stroke-linejoin="round"/>
<path d="M56.9283 244.123H47.2829L48.7303 37.0707H55.4809L56.9283 244.123Z" fill="#263238" stroke="#263238" stroke-linecap="round" stroke-linejoin="round"/>
<path d="M59.632 35.8838H43.9597L42.0028 12.8646H61.5947L59.632 35.8838Z" fill="#263238" stroke="#263238" stroke-linecap="round" stroke-linejoin="round"/>
<path d="M57.8835 35.8838H45.7139L44.1912 12.8646H59.4062L57.8835 35.8838Z" fill="white" stroke="#263238" stroke-linecap="round" stroke-linejoin="round"/>
<path d="M63.2447 10.7398H40.4686V14.5783H63.2447V10.7398Z" fill="#263238" stroke="#263238" stroke-linecap="round" stroke-linejoin="round"/>
<path d="M61.4499 33.3886H42.2575V38.1244H61.4499V33.3886Z" fill="#263238" stroke="#263238" stroke-linecap="round" stroke-linejoin="round"/>
<path d="M59.9157 8.18082H43.537V10.7398H59.9157V8.18082Z" fill="#263238" stroke="#263238" stroke-linecap="round" stroke-linejoin="round"/>
<path d="M52.7714 4.36551H49.9576V8.20399H52.7714V4.36551Z" fill="#263238" stroke="#263238" stroke-linecap="round" stroke-linejoin="round"/>
<path d="M60.7899 229.481H43.8091V250.098H60.7899V229.481Z" fill="#263238" stroke="#263238" stroke-linecap="round" stroke-linejoin="round"/>
<path d="M268.288 250.416H274.685" stroke="#263238" stroke-linecap="round" stroke-linejoin="round"/>
<path d="M11.4513 250.416H262.417" stroke="#263238" stroke-linecap="round" stroke-linejoin="round"/>
<path d="M168.725 120.052L171.156 130.537C171.156 130.537 167.966 134.179 165.083 132.813C162.2 131.446 161.129 123.85 161.129 123.85L168.725 120.052Z" fill="white" stroke="#263238" stroke-linecap="round" stroke-linejoin="round"/>
<path d="M161.326 94.0863C163.045 95.5864 164.199 97.6293 164.597 99.8758C165.141 103.506 173.351 127.729 173.351 127.729C170.359 127.24 167.292 127.497 164.423 128.476C160.069 130.115 155.577 125.784 155.577 125.784L155.351 97.1721" fill="#16A34A"/>
<path d="M161.326 94.0863C163.045 95.5864 164.199 97.6293 164.597 99.8758C165.141 103.506 173.351 127.729 173.351 127.729C170.359 127.24 167.292 127.497 164.423 128.476C160.069 130.115 155.577 125.784 155.577 125.784L155.351 97.1721" stroke="#263238" stroke-linecap="round" stroke-linejoin="round"/>
<path d="M161.314 116.625L163.502 105.683" stroke="#263238" stroke-linecap="round" stroke-linejoin="round"/>
<path d="M109.422 124.933H109.463C111.836 116.457 116.659 102.203 117.568 99.1464C118.836 94.9721 121.013 93.8837 121.013 93.8837L124.278 114.205L123.01 116.926C123.01 116.926 119.484 126.734 116.81 131.579L124.128 147.049L126.669 152.491L123.404 157.21C123.404 157.21 108.525 134.167 107.772 132.535C107.02 130.902 109.422 124.933 109.422 124.933Z" fill="white" stroke="#263238" stroke-linecap="round" stroke-linejoin="round"/>
<path d="M121.951 93.5421C120.114 94.0936 118.556 95.3257 117.597 96.9869C115.779 99.8816 106.892 129.107 106.892 129.107C108.77 130.505 110.953 131.437 113.261 131.828C115.115 132.167 117.01 132.23 118.882 132.014L124.145 118.223" fill="#16A34A"/>
<path d="M121.951 93.5421C120.114 94.0936 118.556 95.3257 117.597 96.9869C115.779 99.8816 106.892 129.107 106.892 129.107C108.77 130.505 110.953 131.437 113.261 131.828C115.115 132.167 117.01 132.23 118.882 132.014L124.145 118.223" stroke="#263238" stroke-linecap="round" stroke-linejoin="round"/>
<path d="M118.633 107.871L123.01 120.272L116.989 112.792" stroke="#263238" stroke-linecap="round" stroke-linejoin="round"/>
<path d="M164.076 246.386C164.076 246.386 164.076 247.127 168.707 251.018C173.339 254.909 174.236 255.997 172.945 257.282C171.654 258.568 165.39 256.177 163.358 254.886C161.326 253.594 162.252 253.594 159.855 252.489C157.458 251.383 158.564 247.515 158.934 246.589C159.305 245.663 164.076 246.386 164.076 246.386Z" fill="white" stroke="#263238" stroke-linecap="round" stroke-linejoin="round"/>
<path d="M119.484 245.553C119.484 245.553 119.484 246.288 114.853 250.184C110.221 254.081 109.318 255.163 110.609 256.454C111.9 257.746 118.17 255.349 120.197 254.058C122.223 252.767 121.308 252.767 123.705 251.661C126.102 250.555 124.99 246.682 124.626 245.761C124.261 244.841 119.484 245.553 119.484 245.553Z" fill="white" stroke="#263238" stroke-linecap="round" stroke-linejoin="round"/>
<path d="M122.316 176.541C121.737 170.335 123.039 158.159 123.039 156.689C123.039 155.218 125.824 149.214 126.629 147.535L126.71 145.59C126.71 145.59 155.391 144.508 159.178 143.159C159.178 143.159 163.607 158.721 164.145 173.334C164.684 187.947 167.127 205.807 166.583 216.09C166.148 224.322 165.766 240.736 165.425 246.247C165.389 246.878 165.148 247.48 164.738 247.961C164.328 248.442 163.772 248.775 163.155 248.911L162.489 249.067C162.09 249.157 161.677 249.163 161.275 249.084C160.874 249.005 160.493 248.843 160.158 248.608C159.824 248.373 159.542 248.07 159.331 247.719C159.12 247.369 158.985 246.978 158.934 246.572C157.603 235.873 152.688 199.954 150.638 193.36C148.206 185.509 143.198 164.267 143.198 164.267C143.198 164.267 131.695 216.628 130.346 223.668C128.997 230.708 124.66 246.67 124.66 246.67C123.529 247.099 122.345 247.372 121.14 247.481C120.134 247.435 119.139 247.254 118.182 246.942L122.316 176.541Z" fill="#263238" stroke="#263238" stroke-linecap="round" stroke-linejoin="round"/>
<path d="M142.521 88.5746C142.521 88.5746 149.521 89.9699 154.245 91.371C158.969 92.7721 162.107 93.6463 162.107 95.2211C162.107 96.7958 160.011 143.853 160.011 143.853C160.011 143.853 159.838 145.781 155.634 146.302C151.431 146.823 129.222 147.53 127.845 147.182C126.467 146.835 125.922 145.445 125.749 143.332C125.575 141.219 120.15 96.6221 120.498 94.5263C120.845 92.4305 137.994 89.2752 138.515 89.1015C139.777 88.564 141.163 88.3818 142.521 88.5746Z" fill="#16A34A" stroke="#263238" stroke-linecap="round" stroke-linejoin="round"/>
<path d="M140.703 101.671C144.933 101.671 148.363 98.8116 148.363 95.2847C148.363 91.7579 144.933 88.8988 140.703 88.8988C136.473 88.8988 133.044 91.7579 133.044 95.2847C133.044 98.8116 136.473 101.671 140.703 101.671Z" fill="#16A34A" stroke="#263238" stroke-linecap="round" stroke-linejoin="round"/>
<path d="M160.666 115.623C160.666 115.623 153.423 131.799 143.801 140.061" stroke="#263238" stroke-linecap="round" stroke-linejoin="round"/>
<path d="M133.032 144.154C132.316 144.713 131.539 145.189 130.716 145.573" stroke="#263238" stroke-linecap="round" stroke-linejoin="round"/>
<path d="M146.209 129.733C146.209 129.733 139.968 138.127 134.63 142.834" stroke="#263238" stroke-linecap="round" stroke-linejoin="round"/>
<path d="M147.489 76.5382C147.489 76.5382 149.11 72.4855 149.914 75.7334C150.719 78.9813 147.894 83.0109 146.279 81.7951" fill="white"/>
<path d="M147.489 76.5382C147.489 76.5382 149.11 72.4855 149.914 75.7334C150.719 78.9813 147.894 83.0109 146.279 81.7951" stroke="#263238" stroke-linecap="round" stroke-linejoin="round"/>
<path d="M130.913 77.5745C130.913 77.5745 127.48 75.3513 127.682 78.385C127.885 81.4187 130.913 84.8519 131.926 83.0167" fill="white"/>
<path d="M130.913 77.5745C130.913 77.5745 127.48 75.3513 127.682 78.385C127.885 81.4187 130.913 84.8519 131.926 83.0167" stroke="#263238" stroke-linecap="round" stroke-linejoin="round"/>
<path d="M146.279 81.7951L146.076 94.3295C146.04 95.0347 145.865 95.7258 145.561 96.3628C145.256 96.9998 144.828 97.5699 144.301 98.0401C143.774 98.5103 143.16 98.8712 142.492 99.1019C141.825 99.3325 141.118 99.4283 140.414 99.3837C134.96 99.3837 135.163 93.1136 135.163 93.1136L133.947 83.0109C133.947 83.0109 142.637 84.0182 146.279 81.7951Z" fill="white" stroke="#263238" stroke-linecap="round" stroke-linejoin="round"/>
<path d="M140.715 92.2742C142.394 91.9673 144.507 89.9931 146.151 88.1694L146.226 83.3988L142.868 81.3724C140.962 81.6565 139.033 81.7592 137.108 81.6793L134.317 84.3541L134.85 88.7889C136.309 90.462 138.683 92.6273 140.715 92.2742Z" fill="#263238"/>
<path d="M129.46 74.6797C129.46 74.6797 127.034 67.1996 133.513 62.7532C139.991 58.3068 146.829 63.9632 147.662 69.6254C148.496 75.2876 147.865 82.7619 144.831 86.9941C141.797 91.2262 139.916 91.5447 136.546 89.0146C133.177 86.4846 129.686 79.514 129.46 74.6797Z" fill="white" stroke="#263238" stroke-linecap="round" stroke-linejoin="round"/>
<path d="M133.35 78.7729C133.35 78.7729 134.723 79.9308 136.975 78.7729" stroke="#263238" stroke-linecap="round" stroke-linejoin="round"/>
<path d="M140.981 78.4024C140.981 78.4024 143.986 79.404 145.236 77.7771" stroke="#263238" stroke-linecap="round" stroke-linejoin="round"/>
<path d="M138.104 83.283C138.104 83.283 139.227 84.1572 139.979 83.9082C140.228 83.7845 140.446 83.6079 140.619 83.3909C140.792 83.1738 140.916 82.9217 140.981 82.6519" stroke="#263238" stroke-linecap="round" stroke-linejoin="round"/>
<path d="M138.37 85.7841C138.952 86.0548 139.606 86.1277 140.233 85.9919C140.861 85.856 141.426 85.5187 141.844 85.0314" stroke="#263238" stroke-linecap="round" stroke-linejoin="round"/>
<path d="M132.847 76.7755C132.847 76.7755 135.226 75.525 137.102 76.1502" stroke="#263238" stroke-linecap="round" stroke-linejoin="round"/>
<path d="M140.228 76.0229C140.228 76.0229 142.232 74.396 144.362 75.3976" stroke="#263238" stroke-linecap="round" stroke-linejoin="round"/>
<path d="M131.035 71.6749C131.035 71.6749 131.81 74.1934 131.614 75.1487C131.417 76.1039 132.58 78.825 130.838 78.6224C129.095 78.4198 128.319 71.6749 128.319 71.6749H131.035Z" fill="#263238" stroke="#263238" stroke-linecap="round" stroke-linejoin="round"/>
<path d="M147.68 75.5481C147.68 75.5481 146.134 76.9029 146.134 75.3513C146.134 73.7997 147.292 73.0355 146.325 71.8776C145.358 70.7196 143.43 69.9381 143.43 68.0043V64.7159C143.43 64.7159 139.377 68.7686 135.904 70.7138C132.43 72.6591 128.956 73.8113 126.229 72.8444C123.502 71.8776 127.196 68.3922 127.196 68.3922C127.196 68.3922 123.143 70.5228 123.143 66.8406C123.143 63.1585 129.917 58.33 136.112 58.33C142.307 58.33 144.432 62.3827 144.432 62.3827C144.432 62.3827 148.108 62.3827 148.693 65.6711C149.278 68.9596 147.68 75.5481 147.68 75.5481Z" fill="#263238" stroke="#263238" stroke-linecap="round" stroke-linejoin="round"/>
<path d="M139.047 102.863L141.45 119.531L149.37 118.715L147.691 101.497L139.047 102.863Z" fill="#263238" stroke="#263238" stroke-linecap="round" stroke-linejoin="round"/>
<path d="M152.317 112.457L151.101 109.718L148.369 107.9L148.67 109.718L149.735 112.15L145.028 111.391L140.923 111.241C140.923 111.241 140.466 112.15 140.923 112.306C141.381 112.462 144.397 113.672 144.397 113.672L139.991 114.124C139.991 114.124 139.383 115.34 139.991 115.647C140.599 115.953 141.658 118.686 143.332 119.12C145.005 119.555 151.107 118.229 151.107 118.229C151.107 118.229 160.833 135.702 162.808 137.068C164.782 138.434 168.429 137.676 169.338 137.219C170.247 136.761 171.938 134.358 171.77 131.597C171.695 130.387 153.388 114.888 153.388 114.888L152.317 112.457Z" fill="white" stroke="#263238" stroke-linecap="round" stroke-linejoin="round"/>
<path d="M161.175 104.542L177.866 98.0927V85.4251C177.868 84.6179 178.189 83.8442 178.76 83.2735C179.331 82.7027 180.104 82.3814 180.912 82.3798H217.924C218.732 82.3814 219.505 82.7027 220.076 83.2735C220.647 83.8442 220.968 84.6179 220.97 85.4251V105.943C220.968 106.751 220.647 107.524 220.076 108.095C219.505 108.666 218.732 108.987 217.924 108.989H180.912C180.104 108.987 179.331 108.666 178.76 108.095C178.189 107.524 177.868 106.751 177.866 105.943V102.811L161.175 104.542Z" fill="#263238"/>
<path d="M159.884 104.536L175.938 96.1648V83.4972C175.938 82.6895 176.259 81.9149 176.83 81.3438C177.401 80.7727 178.176 80.4519 178.984 80.4519H215.991C216.798 80.4519 217.573 80.7727 218.144 81.3438C218.715 81.9149 219.036 82.6895 219.036 83.4972V103.981C219.037 104.381 218.958 104.777 218.806 105.147C218.653 105.517 218.429 105.853 218.146 106.136C217.863 106.419 217.527 106.643 217.157 106.796C216.787 106.948 216.391 107.027 215.991 107.026H178.984C178.584 107.027 178.187 106.948 177.817 106.796C177.448 106.643 177.112 106.419 176.829 106.136C176.546 105.853 176.321 105.517 176.169 105.147C176.016 104.777 175.938 104.381 175.938 103.981V100.854L159.884 104.536Z" fill="white" stroke="#263238" stroke-linecap="round" stroke-linejoin="round"/>
<path d="M193.041 97.12C192.103 97.12 191.657 96.79 191.46 96.379V90.711C191.46 89.7946 191.184 88.8993 190.668 88.1423C190.151 87.3852 189.419 86.8014 188.565 86.4672C188.589 86.3666 188.6 86.2637 188.6 86.1604C188.599 85.7791 188.446 85.4139 188.176 85.1448C187.906 84.8757 187.54 84.7246 187.159 84.7246H186.788C186.599 84.7238 186.412 84.7604 186.237 84.8322C186.062 84.904 185.903 85.0097 185.769 85.1431C185.635 85.2765 185.529 85.435 185.456 85.6096C185.384 85.7842 185.346 85.9714 185.346 86.1604C185.347 86.2518 185.357 86.343 185.375 86.4325C184.497 86.752 183.738 87.3338 183.202 88.0992C182.665 88.8645 182.377 89.7763 182.376 90.711V96.379C182.18 96.79 181.734 97.12 180.796 97.12V98.7006H185.428C185.428 98.7006 185.428 98.7643 185.428 98.7932C185.428 99.1878 185.584 99.5663 185.863 99.8453C186.142 100.124 186.521 100.281 186.915 100.281C187.31 100.281 187.689 100.124 187.968 99.8453C188.247 99.5663 188.403 99.1878 188.403 98.7932C188.403 98.7643 188.403 98.7295 188.403 98.7006H193.035L193.041 97.12Z" fill="#263238"/>
<path d="M195.878 89.3447H212.476" stroke="#263238" stroke-linecap="round" stroke-linejoin="round"/>
<path d="M195.878 93.9763H212.476" stroke="#263238" stroke-linecap="round" stroke-linejoin="round"/>
<path d="M195.878 98.6079H212.476" stroke="#263238" stroke-linecap="round" stroke-linejoin="round"/>
<path d="M133.078 107.246L118.882 101.011V88.3431C118.881 87.5359 118.559 86.7622 117.989 86.1914C117.418 85.6206 116.644 85.2993 115.837 85.2977H84.2781C83.4705 85.2977 82.6959 85.6186 82.1248 86.1897C81.5537 86.7608 81.2328 87.5354 81.2328 88.3431V108.838C81.2328 109.646 81.5537 110.42 82.1248 110.991C82.6959 111.563 83.4705 111.883 84.2781 111.883H115.837C116.644 111.882 117.418 111.561 117.989 110.99C118.559 110.419 118.881 109.645 118.882 108.838V105.706L133.078 107.246Z" fill="#263238"/>
<path d="M133.738 107.582L117.684 99.2101V86.5425C117.682 85.7353 117.361 84.9616 116.79 84.3908C116.219 83.8201 115.446 83.4987 114.639 83.4972H83.0739C82.2667 83.4987 81.493 83.8201 80.9222 84.3908C80.3515 84.9616 80.0301 85.7353 80.0286 86.5425V107.026C80.0286 107.834 80.3494 108.608 80.9205 109.179C81.4917 109.75 82.2662 110.071 83.0739 110.071H114.633C115.44 110.071 116.215 109.75 116.786 109.179C117.357 108.608 117.678 107.834 117.678 107.026V103.894L133.738 107.582Z" fill="white" stroke="#263238" stroke-linecap="round" stroke-linejoin="round"/>
<path d="M98.3004 106.198C103.653 106.198 107.992 101.859 107.992 96.5063C107.992 91.1537 103.653 86.8146 98.3004 86.8146C92.9479 86.8146 88.6087 91.1537 88.6087 96.5063C88.6087 101.859 92.9479 106.198 98.3004 106.198Z" fill="#16A34A"/>
<path d="M96.5636 101.439C96.5488 101.16 96.5909 100.882 96.6873 100.62C96.7838 100.358 96.9326 100.118 97.1246 99.9158C97.3166 99.7133 97.5479 99.552 97.8043 99.4418C98.0607 99.3315 98.3369 99.2747 98.616 99.2747C98.8951 99.2747 99.1712 99.3315 99.4276 99.4418C99.684 99.552 99.9153 99.7133 100.107 99.9158C100.299 100.118 100.448 100.358 100.545 100.62C100.641 100.882 100.683 101.16 100.668 101.439C100.683 101.71 100.64 101.981 100.542 102.235C100.443 102.488 100.292 102.717 100.098 102.907C99.9041 103.097 99.6719 103.244 99.4168 103.337C99.1617 103.43 98.8897 103.468 98.6189 103.448C98.3406 103.462 98.0626 103.417 97.8025 103.317C97.5423 103.218 97.3058 103.065 97.1078 102.869C96.927 102.679 96.7859 102.454 96.6924 102.209C96.599 101.963 96.5552 101.702 96.5636 101.439ZM100.5 90.6589C100.5 90.9831 100.5 91.4578 100.5 92.0773C100.5 92.6968 100.46 93.3684 100.414 94.0921C100.367 94.8158 100.315 95.5279 100.246 96.2516C100.176 96.9753 100.089 97.5948 99.9852 98.1216C99.9073 98.1769 99.8214 98.2198 99.7305 98.249C99.612 98.2952 99.49 98.3319 99.3657 98.359C99.2384 98.359 99.111 98.4053 98.9836 98.4227C98.8562 98.44 98.7405 98.4227 98.642 98.4227C98.2846 98.4325 97.9292 98.3654 97.5999 98.2258C97.4571 98.1554 97.3344 98.05 97.2433 97.9194C97.1522 97.7888 97.0956 97.6373 97.0788 97.479C96.9866 96.9836 96.9267 96.4827 96.8994 95.9795C96.8473 95.3137 96.801 94.5842 96.7546 93.7968C96.7083 93.0094 96.6852 92.2394 96.662 91.481C96.6389 90.7226 96.6273 90.051 96.6273 89.5125C96.935 89.3481 97.2616 89.2218 97.5999 89.1362C97.9536 89.0449 98.3173 88.9982 98.6826 88.9973C99.1699 88.966 99.6524 89.1097 100.043 89.4025C100.209 89.5644 100.335 89.7613 100.415 89.9787C100.494 90.1961 100.523 90.4286 100.5 90.6589Z" fill="black"/>
</svg>
