<svg width="30" height="36" viewBox="0 0 30 36" fill="none" xmlns="http://www.w3.org/2000/svg">
<path fill-rule="evenodd" clip-rule="evenodd" d="M9.16667 1.25C9.16667 0.559644 9.72631 0 10.4167 0H15.4167C16.107 0 16.6667 0.559644 16.6667 1.25C16.6667 2.05248 17.586 3.33333 19.5833 3.33333C21.5807 3.33333 22.5 2.05248 22.5 1.25C22.5 0.559644 23.0596 0 23.75 0H28.75C29.4404 0 30 0.559644 30 1.25V26.25C30 26.9404 29.4404 27.5 28.75 27.5H23.75C23.0596 27.5 22.5 26.9404 22.5 26.25C22.5 25.3696 21.6058 24.1667 19.5833 24.1667C18.893 24.1667 18.3333 23.607 18.3333 22.9167C18.3333 22.2263 18.893 21.6667 19.5833 21.6667C22.0688 21.6667 24.1792 23.0128 24.8088 25H27.5V2.5H24.7969C24.1561 4.42352 22.0719 5.83333 19.5833 5.83333C17.0948 5.83333 15.0106 4.42352 14.3698 2.5H11.6667V12.9167C11.6667 13.607 11.107 14.1667 10.4167 14.1667C9.72631 14.1667 9.16667 13.607 9.16667 12.9167V1.25Z" fill="#3337BF"/>
<path fill-rule="evenodd" clip-rule="evenodd" d="M0 9.58333C0 8.89298 0.559644 8.33333 1.25 8.33333H6.25C6.94036 8.33333 7.5 8.89298 7.5 9.58333C7.5 10.3858 8.4193 11.6667 10.4167 11.6667C12.414 11.6667 13.3333 10.3858 13.3333 9.58333C13.3333 8.89298 13.893 8.33333 14.5833 8.33333H19.5833C20.2737 8.33333 20.8333 8.89298 20.8333 9.58333V34.5833C20.8333 35.2737 20.2737 35.8333 19.5833 35.8333H14.5833C13.893 35.8333 13.3333 35.2737 13.3333 34.5833C13.3333 33.7029 12.4392 32.5 10.4167 32.5C8.39417 32.5 7.5 33.7029 7.5 34.5833C7.5 35.2737 6.94036 35.8333 6.25 35.8333H1.25C0.559644 35.8333 0 35.2737 0 34.5833V9.58333ZM2.5 10.8333V33.3333H5.19124C5.82082 31.3462 7.93119 30 10.4167 30C12.9021 30 15.0125 31.3462 15.6421 33.3333H18.3333V10.8333H15.6302C14.9894 12.7569 12.9052 14.1667 10.4167 14.1667C7.92813 14.1667 5.8439 12.7569 5.20314 10.8333H2.5Z" fill="#3337BF"/>
<path d="M6.25 19.5833C7.17048 19.5833 7.91667 18.8371 7.91667 17.9167C7.91667 16.9962 7.17048 16.25 6.25 16.25C5.32953 16.25 4.58333 16.9962 4.58333 17.9167C4.58333 18.8371 5.32953 19.5833 6.25 19.5833Z" fill="#3337BF"/>
<path d="M10.4167 19.5833C11.3371 19.5833 12.0833 18.8371 12.0833 17.9167C12.0833 16.9962 11.3371 16.25 10.4167 16.25C9.49619 16.25 8.75 16.9962 8.75 17.9167C8.75 18.8371 9.49619 19.5833 10.4167 19.5833Z" fill="#3337BF"/>
<path d="M14.5833 19.5833C15.5038 19.5833 16.25 18.8371 16.25 17.9167C16.25 16.9962 15.5038 16.25 14.5833 16.25C13.6629 16.25 12.9167 16.9962 12.9167 17.9167C12.9167 18.8371 13.6629 19.5833 14.5833 19.5833Z" fill="#3337BF"/>
</svg>
